<svg width="22" height="25" viewBox="0 0 22 25" fill="none" xmlns="http://www.w3.org/2000/svg">
<g id="Group 2482">
<path id="Vector" d="M4.16622 21.2568C2.94446 21.5013 1.75502 21.7392 0.572043 21.9837C0.378112 22.0234 0.19711 22.03 0.0742872 21.8449C-0.055 21.6665 0.00317925 21.4881 0.106609 21.3162C1.19262 19.3798 2.29156 17.4435 3.38404 15.5071C3.44222 15.4079 3.49393 15.3088 3.55211 15.2031C2.95739 14.3703 2.49842 13.4781 2.18167 12.5066C0.740116 8.13158 2.67296 3.22782 6.6744 1.09977C11.833 -1.6429 18.0904 0.947767 19.8681 6.61155C20.799 9.57892 20.353 12.3811 18.6335 14.9651C18.5106 15.1502 18.5106 15.2691 18.6141 15.4608C19.7195 17.3972 20.8184 19.3402 21.9044 21.2898C21.982 21.4286 22.0272 21.6269 21.982 21.7722C21.9173 22.0036 21.704 22.0366 21.4778 21.9903C20.3207 21.7524 19.17 21.5211 18.0129 21.2832C17.9676 21.2766 17.9159 21.27 17.8513 21.2634C17.6056 21.9969 17.36 22.7305 17.1143 23.4641C16.9656 23.9069 16.8105 24.3497 16.6748 24.7991C16.6295 24.9379 16.5584 24.9709 16.4162 24.9908C16.0606 25.037 15.8667 24.9114 15.6857 24.5744C14.6837 22.757 13.6494 20.9527 12.6345 19.1419C12.5311 18.9569 12.4212 18.9106 12.2337 18.9437C11.4192 19.0692 10.6112 19.0758 9.79668 18.9437C9.58982 18.9106 9.467 18.9569 9.3571 19.1617C8.32927 21.0056 7.28204 22.8363 6.26068 24.6801C6.13139 24.9048 6.00857 25.037 5.73706 24.9908C5.63363 24.9709 5.5302 24.9908 5.39445 24.9908C4.99366 23.7483 4.58641 22.5124 4.16622 21.2568ZM19.5514 9.51283C19.5514 4.68837 15.731 0.789154 11.012 0.789154C6.30593 0.795763 2.49196 4.69498 2.48549 9.50622C2.47903 14.3241 6.29946 18.2365 11.012 18.2431C15.731 18.2431 19.5514 14.3373 19.5514 9.51283ZM5.84696 23.8276C6.81661 22.1093 7.76041 20.4373 8.71713 18.7454C6.88772 18.2497 5.35567 17.2914 4.07572 15.8639C3.09314 17.6021 2.13642 19.3005 1.15383 21.0387C1.27019 21.0254 1.3413 21.0188 1.41241 21.0056C2.31742 20.8272 3.21596 20.6421 4.12097 20.4571C4.61227 20.358 4.70277 20.4042 4.86438 20.8999C5.18113 21.8516 5.50435 22.8164 5.84696 23.8276ZM16.1835 23.821C16.2287 23.6888 16.2675 23.6029 16.2934 23.5104C16.5972 22.605 16.8945 21.6995 17.1984 20.7941C17.3147 20.4439 17.444 20.3646 17.7996 20.4306C18.3232 20.5298 18.8468 20.6421 19.3639 20.7479C19.8552 20.847 20.34 20.9461 20.8831 21.0519C19.894 19.3005 18.9308 17.5955 17.9547 15.8639C16.6748 17.2981 15.1362 18.2497 13.3133 18.752C14.2765 20.4439 15.2203 22.1159 16.1835 23.821Z" fill="#F4B000"/>
<path id="Vector_2" d="M10.9989 16.657C7.1526 16.6438 4.02385 13.4319 4.03678 9.493C4.04971 5.56073 7.19139 2.36866 11.0441 2.38188C14.8969 2.39509 18.0127 5.6136 17.9998 9.55248C17.9804 13.4781 14.8387 16.6636 10.9989 16.657ZM4.81251 9.52604C4.81251 13.0221 7.58571 15.8573 11.0054 15.8639C14.4379 15.8705 17.2176 13.0287 17.2176 9.52604C17.2176 6.01674 14.4444 3.17494 11.0118 3.18155C7.57925 3.17494 4.80604 6.01674 4.81251 9.52604Z" fill="#F4B000"/>
<path id="Vector_3" d="M8.31634 11.8193C8.34866 11.3765 8.38745 10.9271 8.40038 10.4843C8.40684 10.3588 8.34866 10.2134 8.27755 10.1142C7.89616 9.60534 7.48244 9.11629 7.10751 8.6008C6.82954 8.22409 6.9459 7.87382 7.38547 7.73504C7.98666 7.54338 8.60077 7.39799 9.20196 7.21955C9.32478 7.17989 9.45407 7.08076 9.52517 6.97502C9.88718 6.4397 10.2169 5.88456 10.5853 5.34924C10.8374 4.98576 11.193 4.99237 11.4451 5.34924C11.8071 5.87795 12.1497 6.41988 12.4794 6.9618C12.5764 7.11381 12.6862 7.1865 12.8543 7.23277C13.4426 7.38477 14.0244 7.53677 14.6062 7.72182C15.1039 7.88043 15.2009 8.29018 14.8712 8.71976C14.5027 9.18898 14.1149 9.645 13.7529 10.1208C13.6753 10.22 13.6365 10.372 13.6365 10.4909C13.6559 11.132 13.7011 11.7797 13.7141 12.4207C13.7141 12.5727 13.643 12.7445 13.5525 12.8635C13.4426 13.0089 13.2616 13.0618 13.0676 12.9891C12.4794 12.7644 11.8847 12.5463 11.3029 12.315C11.1089 12.2357 10.9538 12.2291 10.7534 12.315C10.1975 12.5529 9.6286 12.771 9.05974 12.9692C8.62016 13.1212 8.35513 12.9164 8.32927 12.4405C8.30988 12.2357 8.31634 12.0308 8.31634 11.8193ZM9.07913 12.1431C9.39589 12.0176 9.69971 11.9449 9.95829 11.7863C10.7017 11.3303 11.4192 11.4162 12.1497 11.8193C12.3953 11.9515 12.6604 12.0374 12.9513 12.1497C12.919 11.6541 12.919 11.1981 12.8543 10.7487C12.7767 10.22 12.9319 9.80361 13.2939 9.4269C13.5977 9.10968 13.8498 8.7528 14.1537 8.3827C13.6818 8.25714 13.2616 8.11174 12.822 8.03904C12.3113 7.95313 11.9816 7.69538 11.7424 7.23277C11.5356 6.83623 11.277 6.46614 11.0184 6.04978C10.7146 6.54545 10.4237 6.98824 10.1651 7.45086C9.99707 7.74165 9.77082 7.90687 9.4476 7.97956C8.93692 8.09192 8.4327 8.23731 7.88969 8.3761C8.26463 8.83872 8.60724 9.2749 8.96278 9.69787C9.14378 9.91596 9.21489 10.1473 9.18903 10.4248C9.14378 10.9932 9.11792 11.5483 9.07913 12.1431Z" fill="#F4B000"/>
</g>
</svg>
