<svg width="100" height="100" viewBox="0 0 100 100" fill="none" xmlns="http://www.w3.org/2000/svg">
<g id="icon">
<circle id="Ellipse 7" cx="50" cy="50" r="50" fill="url(#paint0_linear_48_57)"/>
<g id="Group">
<path id="Vector" d="M49.7434 77C49.2435 76.7628 49.1514 76.3279 49.1646 75.8138C49.1778 71.9256 49.1646 68.0506 49.1646 64.1624C49.1646 63.9515 49.1646 63.7538 49.1646 63.5166C48.5595 63.5166 47.9938 63.5166 47.3624 63.5166C47.3624 64.2678 47.3624 65.0191 47.3624 65.7704C47.3624 66.1526 47.3756 66.548 47.3493 66.9303C47.3098 67.3916 46.9809 67.7211 46.5731 67.6947C46.139 67.6684 45.8365 67.4179 45.8102 66.9698C45.7839 66.1922 45.7839 65.4277 45.7839 64.6501C45.7839 64.281 45.7839 63.9252 45.7839 63.5297C45.1787 63.5297 44.6262 63.5297 44.0211 63.5297C44.008 63.6747 43.9948 63.8329 43.9948 63.9779C43.9948 65.9945 43.9948 68.0242 43.9817 70.0408C43.9817 70.3308 44.0606 70.5021 44.3368 70.6471C45.3892 71.2007 45.8891 72.3342 45.5997 73.4414C45.3103 74.5353 44.3237 75.313 43.2055 75.313C42.1137 75.313 41.114 74.5485 40.8246 73.4941C40.5088 72.3606 41.0087 71.2534 42.0611 70.6208C42.2058 70.5285 42.39 70.3308 42.39 70.1858C42.4031 68.0111 42.4031 65.8231 42.39 63.6484C42.39 63.622 42.3636 63.5825 42.311 63.4507C41.6928 63.4507 41.035 63.477 40.3773 63.4507C38.2725 63.332 36.4835 61.5922 36.4967 59.088C36.4967 58.6135 36.4967 58.139 36.4967 57.6645C35.5101 57.6645 34.5629 57.6249 33.6026 57.6909C33.3132 57.7172 33.0107 57.9808 32.7739 58.2181C31.169 59.8129 29.5642 61.4077 27.9856 63.0289C27.8672 63.1607 27.7751 63.4375 27.8278 63.5956C28.1961 64.9928 27.5515 66.3108 26.2624 66.7326C24.9337 67.1675 23.6051 66.4821 23.1184 65.1114C23.0921 65.0323 23.0395 64.9532 23 64.8873C23 64.5314 23 64.1888 23 63.8329C23.0395 63.7802 23.0921 63.7274 23.1052 63.6747C23.6709 62.2249 24.8548 61.645 26.315 62.0404C26.4728 62.0799 26.7491 61.9876 26.8806 61.8558C28.3671 60.3796 29.8667 58.9298 31.3006 57.4141C32.274 56.386 33.3922 55.872 34.7997 55.9774C35.3522 56.0169 35.9047 55.9906 36.4572 55.9906C36.4572 55.3447 36.4572 54.7912 36.4572 54.1849C36.2336 54.1849 36.0494 54.1849 35.8521 54.1849C34.997 54.1849 34.1288 54.1981 33.2738 54.1849C32.6424 54.1717 32.2872 53.8817 32.2872 53.3941C32.2872 52.9196 32.6424 52.6164 33.2606 52.6032C33.6684 52.5901 34.0631 52.6032 34.4709 52.6032C35.1286 52.6032 35.7863 52.6032 36.4572 52.6032C36.4572 51.9706 36.4572 51.417 36.4572 50.7975C36.2204 50.7975 36.0099 50.7975 35.8126 50.7975C31.932 50.7975 28.0645 50.7975 24.1839 50.7975C23.684 50.7975 23.2368 50.7316 23 50.2176C23 50.0726 23 49.9408 23 49.7958C23.2368 49.2818 23.684 49.2159 24.1839 49.2159C28.0645 49.2291 31.932 49.2159 35.8126 49.2159C36.0231 49.2159 36.2204 49.2159 36.4572 49.2159C36.4572 48.6096 36.4572 48.0428 36.4572 47.4102C35.7074 47.4102 34.9576 47.4102 34.2078 47.4102C33.8263 47.4102 33.4316 47.4234 33.0502 47.397C32.5897 47.3575 32.2609 47.028 32.2872 46.6194C32.3135 46.1844 32.5634 45.8813 33.0107 45.8549C33.7473 45.8154 34.484 45.8285 35.2207 45.8285C35.6153 45.8285 36.0231 45.8285 36.4441 45.8285C36.4441 45.2222 36.4441 44.6687 36.4441 44.0624C36.2994 44.0492 36.1415 44.036 35.9968 44.0228C33.9841 44.0228 31.9583 44.0228 29.9457 44.0097C29.6563 44.0097 29.4852 44.0756 29.3405 44.3655C28.788 45.42 27.6567 45.9208 26.5518 45.6308C25.4599 45.3409 24.6838 44.3523 24.6838 43.232C24.6838 42.138 25.4468 41.1363 26.486 40.8464C27.6173 40.53 28.7223 41.0309 29.3537 42.0853C29.4458 42.2435 29.6826 42.4148 29.8404 42.428C31.9583 42.4544 34.0894 42.4412 36.2073 42.4412C36.273 42.4412 36.3388 42.428 36.4704 42.4017C36.4704 41.914 36.4572 41.4263 36.4704 40.9386C36.4835 40.53 36.5098 40.1346 36.6019 39.7392C36.694 39.2779 37.0755 39.0143 37.4833 39.0934C37.9568 39.1856 38.141 39.4888 38.141 39.9633C38.1015 46.303 38.0752 52.6428 38.0489 58.9825C38.0489 60.3928 38.6935 61.3945 39.8643 61.7504C40.2063 61.8558 40.5878 61.8954 40.9561 61.8954C46.9152 61.9086 52.8742 61.9086 58.8464 61.8954C59.1753 61.8954 59.5042 61.8295 59.8462 61.8163C60.4118 61.7768 60.7538 62.014 60.8196 62.4621C60.8854 62.9234 60.596 63.3057 60.0172 63.3716C59.4252 63.4375 58.8333 63.4507 58.2413 63.477C58.0177 63.4902 57.794 63.477 57.5441 63.477C57.5441 64.4524 57.5047 65.3882 57.5704 66.324C57.5967 66.6139 57.8467 66.9303 58.0703 67.1543C59.6752 68.7887 61.28 70.3967 62.9112 71.9915C63.0296 72.1101 63.3058 72.1892 63.4769 72.1365C64.8844 71.7675 66.2262 72.4397 66.634 73.7577C67.0418 75.0889 66.3446 76.3806 64.9502 76.8682C64.8844 76.8946 64.8318 76.9341 64.7792 76.9737C64.4635 76.9737 64.1477 76.9737 63.832 76.9737C63.7926 76.9473 63.7531 76.9078 63.7005 76.8946C62.1614 76.3806 61.5431 75.2075 61.9509 73.6391C61.9904 73.4809 61.8851 73.2173 61.7536 73.0855C60.2145 71.517 58.6754 69.9618 57.11 68.4328C56.2813 67.6288 55.8603 66.6798 55.9129 65.52C55.9392 64.861 55.9129 64.1888 55.9129 63.5034C55.2947 63.5034 54.729 63.5034 54.1371 63.5034C54.1239 63.7011 54.1107 63.8461 54.1107 64.0042C54.1107 64.94 54.1239 65.8627 54.0976 66.7985C54.0844 67.3389 53.7556 67.6815 53.3083 67.6815C52.8611 67.6815 52.5585 67.3389 52.5322 66.7985C52.519 66.3108 52.5322 65.8099 52.519 65.3223C52.519 64.716 52.519 64.1097 52.519 63.5034C51.8745 63.5034 51.322 63.5034 50.7168 63.5034C50.7168 63.7406 50.7168 63.9515 50.7168 64.1624C50.7168 68.0374 50.7168 71.9256 50.7168 75.8006C50.7168 76.3147 50.6379 76.7496 50.138 76.9869C50.0197 77 49.8881 77 49.7434 77ZM26.3807 64.3865C26.3939 63.912 25.9993 63.5166 25.5388 63.4902C25.039 63.4638 24.618 63.8593 24.6049 64.3601C24.5917 64.8346 25.039 65.2827 25.5125 65.2695C25.9598 65.2695 26.3676 64.8478 26.3807 64.3865ZM64.2793 75.4052C64.7529 75.4184 65.2001 74.9835 65.187 74.509C65.187 74.0477 64.766 73.6391 64.3056 73.6259C63.8452 73.6127 63.4374 74.0081 63.4111 74.4694C63.3979 74.9703 63.7926 75.4052 64.2793 75.4052ZM27.1832 42.3621C26.6965 42.3489 26.2755 42.7839 26.2755 43.2584C26.2887 43.7329 26.6833 44.1151 27.1569 44.1283C27.6304 44.1283 28.0382 43.7592 28.0514 43.2847C28.0777 42.7971 27.6831 42.3621 27.1832 42.3621ZM43.2187 71.9388C42.732 71.9256 42.311 72.3474 42.311 72.8351C42.311 73.2964 42.7188 73.705 43.1792 73.7181C43.6528 73.7313 44.0474 73.3491 44.0737 72.8746C44.1001 72.3737 43.7186 71.952 43.2187 71.9388Z" fill="black"/>
<path id="Vector_2" d="M50.1647 23.0132C50.6646 23.2504 50.7567 23.6854 50.7435 24.1994C50.7303 28.0876 50.7435 31.9626 50.7435 35.8508C50.7435 36.0617 50.7435 36.2594 50.7435 36.4967C51.3618 36.4967 51.9143 36.4967 52.5457 36.4967C52.5457 35.7059 52.5457 34.915 52.5457 34.1374C52.5457 33.7815 52.5457 33.4388 52.5588 33.083C52.5851 32.6216 52.8614 32.3844 53.2823 32.3317C53.677 32.279 54.0585 32.6085 54.0848 33.0566C54.1242 33.9001 54.1111 34.7437 54.1111 35.5872C54.1111 35.8772 54.1111 36.1803 54.1111 36.4967C54.7162 36.4967 55.2819 36.4967 55.9133 36.4967C55.9133 36.3253 55.9133 36.154 55.9133 35.9826C55.9133 33.9924 55.9001 32.0154 55.9264 30.0251C55.9264 29.6824 55.8212 29.5111 55.5186 29.3397C54.5057 28.7994 54.019 27.6527 54.3084 26.5587C54.5978 25.4647 55.5844 24.7003 56.7026 24.7003C57.7944 24.7003 58.7941 25.4647 59.0835 26.5192C59.3861 27.6131 58.9257 28.7598 57.9259 29.3134C57.5971 29.4979 57.4918 29.6824 57.4918 30.0383C57.505 32.0022 57.505 33.9792 57.505 35.9431C57.505 36.1144 57.5181 36.2858 57.5313 36.523C59.2151 36.4835 60.8594 36.4439 62.1617 37.7488C63.464 39.0537 63.4509 40.7012 63.3983 42.3883C64.3717 42.3883 65.2925 42.4278 66.2134 42.3619C66.5159 42.3356 66.8579 42.072 67.0947 41.8347C68.7259 40.2399 70.3176 38.6055 71.9356 36.9975C72.1461 36.7866 72.1593 36.6285 72.0672 36.3517C71.712 35.2314 72.1724 34.0583 73.1722 33.4916C74.1456 32.9248 75.3822 33.083 76.1714 33.887C76.9739 34.7041 77.1186 35.9167 76.5398 36.8921C75.961 37.8806 74.7902 38.3287 73.6721 37.9597C73.3563 37.8542 73.1985 37.9597 73.0012 38.1574C71.4621 39.6995 69.9098 41.2284 68.397 42.7837C67.5814 43.6272 66.6212 44.0622 65.4372 44.0095C64.7927 43.9831 64.1481 44.0095 63.4509 44.0095C63.4509 44.6158 63.4509 45.1825 63.4509 45.8152C64.398 45.8152 65.3452 45.8152 66.2791 45.8152C66.5028 45.8152 66.7395 45.8284 66.9632 45.8547C67.3973 45.9206 67.6078 46.2238 67.5946 46.6324C67.5814 47.0409 67.3447 47.3441 66.9106 47.3573C66.0818 47.3836 65.2662 47.3836 64.4375 47.3836C64.1086 47.3836 63.7798 47.3836 63.4377 47.3836C63.4377 48.0031 63.4377 48.5567 63.4377 49.1893C63.6614 49.1893 63.8718 49.1893 64.0692 49.1893C67.9103 49.1893 71.7515 49.1893 75.5926 49.1893C75.8426 49.1893 76.1451 49.1366 76.3161 49.2552C76.5529 49.4266 76.8555 49.7297 76.8423 49.9802C76.8423 50.2306 76.5398 50.5337 76.303 50.6919C76.132 50.8105 75.8294 50.7578 75.5795 50.7578C71.7778 50.7578 67.9629 50.7578 64.1612 50.7578C63.9376 50.7578 63.714 50.7578 63.4377 50.7578C63.4377 51.3641 63.4377 51.9309 63.4377 52.5635C64.3454 52.5635 65.2399 52.5635 66.1213 52.5635C66.3449 52.5635 66.5817 52.5503 66.8053 52.5767C67.2789 52.6162 67.5814 52.9194 67.5946 53.3412C67.6078 53.7497 67.3052 54.1056 66.8316 54.132C66.0029 54.1715 65.1873 54.1583 64.3586 54.1583C64.056 54.1583 63.7666 54.1583 63.4246 54.1583C63.4246 54.7646 63.4246 55.3314 63.4246 55.9245C63.5956 55.9377 63.7403 55.9509 63.8981 55.9509C65.8977 55.9509 67.8972 55.9509 69.8967 55.964C70.2124 55.964 70.3834 55.8718 70.5412 55.5818C71.0806 54.5537 72.2119 54.0661 73.3037 54.3429C74.3824 54.6196 75.1717 55.6082 75.1848 56.7285C75.198 57.8225 74.4482 58.8242 73.3958 59.1273C72.2908 59.4436 71.1332 58.9823 70.5676 57.9543C70.3965 57.6511 70.2255 57.5457 69.8835 57.5457C67.7525 57.5589 65.6082 57.5589 63.3851 57.5589C63.3851 58.0202 63.3983 58.4551 63.3851 58.8901C63.372 59.325 63.3457 59.7732 63.2667 60.1949C63.1878 60.6826 62.8063 60.9726 62.3854 60.9067C61.9513 60.8408 61.7145 60.5113 61.7145 59.9972C61.7408 53.6179 61.7802 47.2386 61.7934 40.8725C61.7934 39.1855 60.7016 38.1047 59.0046 38.1047C52.9535 38.0915 46.9023 38.1047 40.8512 38.1047C40.5486 38.1047 40.2592 38.1706 39.9567 38.1838C39.4305 38.2101 39.1016 37.9729 39.0227 37.5379C38.9569 37.0898 39.2332 36.6944 39.7594 36.6285C40.4697 36.5494 41.1932 36.5494 41.9036 36.5099C42.022 36.5099 42.1404 36.4967 42.2851 36.4967C42.2851 35.5345 42.3245 34.5723 42.2587 33.6234C42.2324 33.3334 41.9693 33.0302 41.7326 32.793C40.1408 31.1718 38.5491 29.577 36.9311 27.9822C36.7996 27.8635 36.5233 27.7713 36.3655 27.824C34.9448 28.2062 33.6161 27.534 33.2083 26.216C32.8006 24.8848 33.4978 23.5799 34.8921 23.1054C35.0105 23.0923 35.0632 23.0527 35.1158 23.0132C35.4315 23.0132 35.7472 23.0132 36.0629 23.0132C36.1024 23.0395 36.1418 23.0791 36.1945 23.0923C37.7335 23.6063 38.3518 24.7793 37.944 26.3478C37.9046 26.506 38.0098 26.7696 38.1413 26.9014C39.6936 28.483 41.2458 30.0515 42.8244 31.5936C43.6137 32.3712 44.0215 33.2938 43.9952 34.4142C43.9689 35.0996 43.9952 35.7718 43.9952 36.4835C44.6134 36.4835 45.1791 36.4835 45.7973 36.4835C45.7973 36.2331 45.7973 36.0354 45.7973 35.8245C45.7973 34.9414 45.7842 34.0715 45.8105 33.1884C45.8237 32.6348 46.1525 32.3053 46.5998 32.3053C47.047 32.3053 47.3628 32.648 47.3759 33.1884C47.3891 33.966 47.3759 34.7305 47.3891 35.5081C47.3891 35.8377 47.3891 36.154 47.3891 36.4835C48.0336 36.4835 48.5861 36.4835 49.1912 36.4835C49.1912 36.2462 49.1912 36.0354 49.1912 35.8245C49.1912 31.9495 49.1912 28.0613 49.1912 24.1862C49.1912 23.6722 49.2702 23.2372 49.7701 23C49.8884 23.0132 50.02 23.0132 50.1647 23.0132ZM36.497 25.5043C36.497 25.0166 36.0761 24.5948 35.6025 24.608C35.1552 24.6212 34.7343 25.043 34.7211 25.4911C34.7211 25.9656 35.1552 26.4005 35.6288 26.3873C36.1024 26.3742 36.4839 25.9788 36.497 25.5043ZM74.4219 36.523C74.8954 36.523 75.2901 36.1276 75.3032 35.6663C75.3164 35.1918 74.8823 34.7437 74.4087 34.7437C73.9615 34.7437 73.5405 35.1523 73.5273 35.6136C73.5142 36.1013 73.9351 36.523 74.4219 36.523ZM57.5971 27.1782C57.5971 26.7169 57.1893 26.3083 56.7289 26.2819C56.2421 26.2687 55.8212 26.6773 55.8212 27.1782C55.8212 27.6527 56.2027 28.0481 56.6762 28.0613C57.163 28.0876 57.5971 27.6658 57.5971 27.1782ZM72.7512 55.885C72.2513 55.8718 71.8436 56.2672 71.8436 56.768C71.8436 57.2425 72.2382 57.6379 72.7118 57.6511C73.1985 57.6643 73.6194 57.2425 73.6194 56.7549C73.6194 56.2935 73.2248 55.8981 72.7512 55.885Z" fill="black"/>
<path id="Vector_3" d="M49.9408 58.0333C48.5596 59.2986 47.0336 59.6149 45.363 58.8241C44.2975 58.3233 43.6529 57.4665 43.5082 56.254C43.495 56.0958 43.4029 55.9113 43.2977 55.8058C41.3377 53.9738 41.0746 52.4317 42.3637 50.1646C40.772 48.0426 41.6534 45.2352 44.4685 44.2862C44.2711 42.7968 44.8499 41.6765 46.2312 41.0702C47.573 40.4903 48.8358 40.7671 49.9408 41.7292C51.2036 40.688 52.5586 40.4375 53.9924 41.2415C55.15 41.8874 55.6105 42.9418 55.4263 44.2335C55.9262 44.5234 56.4523 44.7475 56.8865 45.077C58.5308 46.3028 58.7939 48.5171 57.5047 50.0987C57.3074 50.3492 57.2811 50.4941 57.4916 50.7577C58.7939 52.3789 58.5308 54.5537 56.8601 55.819C56.5576 56.0431 56.3997 56.2671 56.3208 56.6494C55.9919 58.1915 54.2424 59.3909 52.6243 59.2327C51.5194 59.1141 51.2431 59.0086 49.9408 58.0333ZM49.1252 51.4168C49.1384 51.2322 49.1515 51.1004 49.1647 50.9686C49.1647 49.7033 49.1515 48.438 49.1778 47.1727C49.191 46.6455 49.533 46.3028 49.9803 46.316C50.4012 46.3292 50.7038 46.6455 50.7432 47.1595C50.7564 47.4363 50.7432 47.7131 50.7432 48.0558C50.98 47.9635 51.1116 47.8713 51.2563 47.8449C51.7693 47.7263 52.2692 47.5945 52.7954 47.5417C53.2295 47.5022 53.532 47.779 53.5715 48.2403C53.6109 48.6884 53.3873 48.9784 52.9401 49.0707C52.8217 49.097 52.7033 49.1102 52.5717 49.1366C51.3352 49.3079 50.7564 49.9537 50.7564 51.2191C50.7564 52.6821 50.7564 54.1319 50.7564 55.5949C50.7564 56.8471 51.4667 57.5852 52.7164 57.6642C54.0187 57.7433 55.058 56.7284 54.808 55.5818C54.6633 54.9359 54.2029 54.5932 53.6373 54.3296C53.0585 54.066 52.8611 53.6706 53.0584 53.2093C53.2426 52.7743 53.7425 52.5898 54.2687 52.893C54.9396 53.2884 55.5578 53.8024 56.2156 54.2769C57.1232 53.3543 56.9654 52.089 55.7552 51.2454C54.9527 50.6918 54.9396 50.1515 55.7288 49.6111C56.4392 49.1366 56.8733 48.5171 56.7418 47.634C56.6102 46.6982 55.9919 46.1578 55.1369 45.8678C54.4397 45.6306 53.7556 45.736 53.0716 45.9469C52.6243 46.0787 52.2166 45.8547 52.085 45.4724C51.9535 45.0638 52.1245 44.6684 52.5586 44.4839C52.7822 44.3916 53.019 44.3257 53.2558 44.2598C53.9267 44.1017 54.0977 43.6931 53.7688 43.1C53.4794 42.5728 52.7559 42.2564 52.085 42.3619C51.3615 42.4805 50.9142 42.8627 50.7827 43.5349C50.6906 43.9962 50.5459 44.4048 49.9934 44.418C49.4409 44.4312 49.2304 44.0621 49.1778 43.5745C49.0857 42.8759 48.6253 42.5464 48.0071 42.3882C47.3362 42.2169 46.7442 42.4014 46.297 42.9286C45.876 43.4295 46.0076 43.9435 46.3364 44.4707C46.6784 45.0243 46.4022 45.5647 45.7576 45.6833C45.5735 45.7229 45.3761 45.7229 45.1788 45.7624C44.4422 45.8942 43.837 46.2501 43.4292 46.9091C42.9951 47.634 43.0872 48.4776 43.6134 49.0048C44.0344 48.8466 44.429 48.6621 44.8499 48.5435C45.3761 48.3853 45.7971 48.5698 45.9418 48.9916C46.0996 49.4529 45.8629 49.8219 45.3235 50.046C44.9157 50.2174 44.4948 50.3623 44.1528 50.6259C42.9031 51.5618 42.8241 53.2752 43.9686 54.211C44.0475 54.1187 44.1264 54.0265 44.2054 53.9342C44.6263 53.4202 45.0736 53.3016 45.4551 53.6047C45.8497 53.9079 45.8497 54.356 45.4419 54.8964C45.1394 55.2918 44.9946 55.7267 45.0999 56.2276C45.2841 57.0711 46.1917 57.7038 47.1783 57.6511C48.2175 57.5983 49.0463 56.9657 49.1252 56.0826C49.1778 55.4368 49.1515 54.7778 49.1384 54.1319C49.1121 53.4993 48.7437 53.0643 48.2044 52.7612C48.0728 52.6821 47.915 52.6294 47.7834 52.5503C47.3493 52.313 47.1783 51.9044 47.3625 51.4958C47.5335 51.1136 47.9544 50.9555 48.428 51.1268C48.6516 51.2191 48.8753 51.3245 49.1252 51.4168Z" fill="black"/>
</g>
</g>
<defs>
<linearGradient id="paint0_linear_48_57" x1="-10.3354" y1="69.6555" x2="114.182" y2="60.4247" gradientUnits="userSpaceOnUse">
<stop stop-color="#009FFE"/>
<stop offset="0.51" stop-color="#00D3FF"/>
<stop offset="1" stop-color="#009FFE"/>
</linearGradient>
</defs>
</svg>
