<svg width="100" height="100" viewBox="0 0 100 100" fill="none" xmlns="http://www.w3.org/2000/svg">
<g id="icon">
<circle id="Ellipse 7" cx="50" cy="50" r="50" fill="url(#paint0_linear_48_70)"/>
<g id="Group">
<path id="Vector" d="M52.7397 23C53.051 23.0849 53.3481 23.1556 53.6594 23.2405C55.9796 23.9196 57.6916 26.0701 57.734 28.4894C57.7764 31.5596 57.7481 34.6438 57.7623 37.7139C57.7623 37.8979 57.7623 38.0959 57.7623 38.393C58.6112 38.1808 59.4035 38.0252 60.1816 37.7988C62.2189 37.2046 64.1713 37.3461 66.0247 38.393C67.7225 39.3551 68.9109 40.7982 69.5051 42.6374C70.9765 47.1082 72.3913 51.6073 73.7779 56.1064C74.4853 58.3983 73.4524 60.8601 71.401 62.1193C69.3778 63.3643 66.7604 63.1379 65.0202 61.5109C63.7469 60.3366 62.5585 59.0774 61.3276 57.8607C61.1861 57.7192 61.0871 57.5495 60.9597 57.3797C59.9411 58.0446 58.9507 58.2852 57.7623 57.988C57.7623 58.2569 57.7623 58.4549 57.7623 58.653C57.7623 62.7842 57.7623 66.9296 57.7623 71.0608C57.7623 74.4846 56.1777 76.4937 52.8388 77.2859C52.8105 77.3001 52.7822 77.3284 52.7539 77.3425C45.496 77.3425 38.2522 77.3425 30.9942 77.3425C30.966 77.3284 30.9377 77.2859 30.9094 77.2859C27.5846 76.4937 26 74.4846 26 71.0467C26 62.1051 26 53.1636 26 44.222C26 39.1146 26 34.0072 26 28.8997C26 26.8624 26.7923 25.1929 28.4901 24.0752C29.2257 23.5659 30.1454 23.3396 30.9942 23C38.238 23 45.496 23 52.7397 23ZM56.1636 38.6619C56.1919 38.4779 56.2202 38.4072 56.2202 38.3364C56.2202 35.0966 56.2626 31.8708 56.206 28.6309C56.1636 26.2682 54.3668 24.5704 51.9899 24.5563C45.2554 24.528 38.521 24.5563 31.7865 24.5421C30.8528 24.5421 30.0039 24.7968 29.2682 25.3627C28.0232 26.2965 27.5563 27.584 27.5563 29.1119C27.5704 41.0953 27.5563 53.0928 27.5563 65.0762C27.5563 67.1984 27.5421 69.3206 27.5563 71.4428C27.5846 73.9894 29.3248 75.758 31.8714 75.758C38.5493 75.7721 45.2413 75.7721 51.9192 75.758C54.4375 75.758 56.1919 74.0036 56.206 71.4853C56.2343 66.7881 56.2202 62.0768 56.206 57.3797C56.206 57.1816 56.107 56.9835 56.0221 56.7996C55.7816 56.2195 55.5411 55.6395 55.2722 55.0736C55.2015 54.9321 55.0317 54.7481 54.9185 54.7481C54.0838 54.734 53.2632 54.7481 52.4285 54.7623C52.0889 54.7623 51.9758 54.9462 51.905 55.2716C51.4381 57.6202 48.8915 58.8228 46.8117 57.6626C46.4297 57.4504 46.2317 57.5353 45.9629 57.8041C44.7178 59.0633 43.5011 60.3508 42.1853 61.525C40.5725 62.9681 38.6625 63.2936 36.6535 62.5013C34.6444 61.6948 33.5409 60.1385 33.3004 57.988C33.1589 56.7855 33.5975 55.6961 33.9512 54.5784C35.1962 50.6594 36.3988 46.7262 37.6863 42.8214C39.0303 38.7467 42.8786 36.7094 46.9532 37.7564C48.5378 38.1667 50.1648 38.4779 51.7918 38.6477C53.2349 38.7892 54.7063 38.6619 56.1636 38.6619ZM44.9018 38.9165C44.8876 38.9448 44.8876 38.9731 44.8735 39.0014C44.5763 39.0297 44.2651 39.0297 43.9821 39.0721C41.393 39.5249 39.8368 41.1378 39.0586 43.5571C37.7146 47.7449 36.3988 51.9327 35.083 56.1205C34.9557 56.5449 34.8425 56.9835 34.8284 57.408C34.7576 58.936 35.6772 60.3649 37.092 61.0016C38.5068 61.6382 40.148 61.3836 41.2799 60.2942C42.5956 59.035 43.8689 57.7334 45.1423 56.4318C45.2413 56.3327 45.2696 56.0498 45.213 55.8941C44.5622 54.0549 45.3262 52.1732 47.0381 51.3951C48.7359 50.6169 50.6175 51.2677 51.5796 52.9513C51.7069 53.1777 51.8343 53.2485 52.1031 53.2343C53.1217 53.1919 54.1546 53.2202 55.1732 53.1777C55.3571 53.1777 55.5977 53.0221 55.6825 52.8806C56.6729 51.2253 58.5829 50.6028 60.2665 51.4092C61.9501 52.2157 62.6575 54.069 62.0209 55.8941C61.9643 56.0498 62.0067 56.3186 62.1199 56.4176C63.3932 57.7192 64.6807 59.0208 65.9964 60.2659C67.2556 61.4543 69.0949 61.6382 70.5521 60.7611C72.0376 59.8839 72.745 58.1578 72.2782 56.4601C72.0235 55.5263 71.7122 54.6067 71.4151 53.6729C70.3257 50.2208 69.2505 46.7687 68.1328 43.3307C67.0434 39.9776 63.8884 38.2516 60.5212 39.2561C56.2909 40.5152 51.9899 40.5577 47.6889 39.5107C46.7551 39.341 45.8355 39.1287 44.9018 38.9165ZM60.7051 54.5784C60.7051 53.5031 59.8279 52.6259 58.7527 52.6118C57.6916 52.6118 56.8002 53.5031 56.7861 54.5642C56.7719 55.6536 57.6774 56.5449 58.7668 56.5308C59.8562 56.5308 60.7051 55.6678 60.7051 54.5784ZM48.4953 56.5449C49.514 56.5308 50.4195 55.6961 50.4195 54.734C50.4195 53.5173 49.5989 52.6259 48.4671 52.6118C47.4201 52.5977 46.5005 53.5173 46.5005 54.5642C46.5146 55.6819 47.3918 56.5591 48.4953 56.5449Z" fill="#121212"/>
<path id="Vector_2" d="M41.8882 26.1551C42.9776 26.1551 44.0811 26.1409 45.1705 26.1551C46.4156 26.1692 47.2644 26.9898 47.2503 28.1358C47.2361 29.2677 46.3873 30.0741 45.1705 30.0741C42.9634 30.0882 40.7564 30.0882 38.5493 30.0741C37.3467 30.0741 36.4978 29.2394 36.4978 28.1075C36.4978 26.9757 37.3325 26.1692 38.5493 26.1551C39.6528 26.1409 40.7705 26.1551 41.8882 26.1551ZM41.8599 28.532C42.9352 28.532 44.0104 28.532 45.0856 28.532C45.3969 28.532 45.694 28.4895 45.694 28.1217C45.694 27.7538 45.3969 27.6972 45.0856 27.6972C42.9351 27.6972 40.7847 27.6972 38.6342 27.6972C38.3229 27.6972 38.0116 27.7821 38.0682 28.1358C38.0965 28.2914 38.4361 28.5037 38.6342 28.5037C39.7094 28.5461 40.7847 28.532 41.8599 28.532Z" fill="#121212"/>
<path id="Vector_3" d="M41.9167 71.4853C43.6994 71.4853 45.482 71.4853 47.2647 71.4853C47.8164 71.4853 48.1277 71.7258 48.1701 72.1644C48.2126 72.6171 47.9296 72.985 47.4344 72.9991C46.911 73.0274 46.3733 73.0133 45.8499 73.0133C42.8363 73.0133 39.8087 73.0133 36.7951 73.0133C36.6254 73.0133 36.4414 73.0133 36.2717 72.9991C35.8189 72.9425 35.5501 72.6737 35.5643 72.221C35.5784 71.7682 35.8472 71.4994 36.3 71.4853C36.88 71.4711 37.4601 71.4711 38.0543 71.4711C39.3418 71.4853 40.6292 71.4853 41.9167 71.4853Z" fill="#121212"/>
<path id="Vector_4" d="M42.2844 44.2928C42.5249 42.6233 43.1899 41.8735 44.3783 41.9018C45.5384 41.9301 46.1751 42.6658 46.3873 44.3069C47.1372 44.2645 47.887 44.4201 48.3114 45.0992C48.552 45.4812 48.6934 45.9764 48.6934 46.4291C48.7076 47.5327 48.0002 48.0703 46.4015 48.3391C45.9912 50.1218 45.3969 50.7584 44.1944 50.6877C43.0625 50.6169 42.44 49.853 42.2985 48.3108C41.5062 48.3108 40.7281 48.1835 40.3037 47.4195C40.0914 47.0375 39.95 46.5565 39.9641 46.132C40.0207 44.986 40.813 44.3918 42.2844 44.2928ZM44.3358 43.2741C44.1236 43.5712 43.968 43.7127 43.9256 43.8825C43.869 44.0806 43.9114 44.3069 43.8973 44.5192C43.8831 45.4812 43.5011 45.8632 42.539 45.8774C42.341 45.8774 42.1288 45.8208 41.959 45.8915C41.7751 45.9623 41.6477 46.1603 41.4921 46.3018C41.6477 46.4574 41.7892 46.6838 41.9731 46.7404C42.1995 46.8253 42.4683 46.7545 42.7088 46.7687C43.4445 46.7828 43.8407 47.179 43.8831 47.9147C43.8973 48.1835 43.8407 48.4664 43.9114 48.707C43.968 48.8767 44.1802 49.1173 44.3217 49.1173C44.4773 49.1173 44.7037 48.8909 44.7461 48.7211C44.8169 48.4523 44.7603 48.1552 44.7744 47.8722C44.8027 47.2073 45.2272 46.797 45.8921 46.7687C46.1043 46.7545 46.3166 46.7545 46.5288 46.7687C46.8683 46.7828 47.1654 46.7121 47.1654 46.316C47.1654 45.9057 46.84 45.8774 46.5146 45.8774C46.3024 45.8774 46.0902 45.8915 45.878 45.8632C45.1706 45.8066 44.8027 45.3963 44.7886 44.6889C44.7886 44.4484 44.831 44.1796 44.7744 43.9532C44.7178 43.7552 44.5339 43.5854 44.3358 43.2741Z" fill="#121212"/>
<path id="Vector_5" d="M53.5886 48.1411C54.2818 48.1411 54.9609 48.1411 55.6542 48.1411C56.206 48.1411 56.5455 48.4382 56.5455 48.8909C56.5455 49.3436 56.2201 49.6549 55.6683 49.669C54.3101 49.6832 52.9519 49.6832 51.5796 49.669C50.9995 49.669 50.6882 49.3861 50.6882 48.905C50.6882 48.4099 51.0136 48.1411 51.622 48.1411C52.287 48.1269 52.9378 48.1411 53.5886 48.1411Z" fill="#121212"/>
<path id="Vector_6" d="M52.1172 43.9956C52.3294 43.9956 52.5416 43.9814 52.7539 43.9956C53.2066 44.0239 53.4754 44.2786 53.4896 44.7313C53.5037 45.184 53.249 45.467 52.7963 45.4953C52.3436 45.5236 51.8767 45.5236 51.424 45.4953C50.9712 45.467 50.7166 45.1982 50.7166 44.7313C50.7166 44.2786 50.9854 44.0239 51.4381 43.9814C51.6503 43.9814 51.8908 43.9956 52.1172 43.9956Z" fill="#121212"/>
<path id="Vector_7" d="M55.7815 43.9957C56.0079 43.9957 56.2484 43.9815 56.4747 43.9957C56.9275 44.0381 57.1963 44.3069 57.1963 44.7597C57.1963 45.1841 56.9558 45.4671 56.5172 45.4954C56.0362 45.5237 55.5693 45.5237 55.0882 45.4954C54.6638 45.4671 54.3525 45.1134 54.395 44.7172C54.4374 44.2928 54.6638 44.0381 55.1024 43.9957C55.3146 43.9815 55.5551 43.9957 55.7815 43.9957Z" fill="#121212"/>
<path id="Vector_8" d="M62.7424 49.7398C62.2614 49.7539 61.8652 49.3578 61.8652 48.8768C61.8652 48.4099 62.2331 48.042 62.7 48.0279C63.1669 48.0137 63.5488 48.3674 63.563 48.8343C63.5913 49.3153 63.2234 49.7256 62.7424 49.7398Z" fill="#121212"/>
<path id="Vector_9" d="M63.577 43.7409C63.577 44.2078 63.2092 44.5615 62.7423 44.5615C62.2471 44.5615 61.8651 44.1795 61.8793 43.6985C61.8934 43.2458 62.2754 42.8638 62.7282 42.8496C63.1809 42.8638 63.577 43.2599 63.577 43.7409Z" fill="#121212"/>
<path id="Vector_10" d="M60.1532 45.4529C60.6201 45.4529 61.0021 45.8349 61.0021 46.3018C61.0021 46.7687 60.5777 47.179 60.1108 47.1649C59.6439 47.1366 59.2902 46.7546 59.3044 46.2877C59.3185 45.8066 59.6864 45.4529 60.1532 45.4529Z" fill="#121212"/>
<path id="Vector_11" d="M65.2891 47.1649C64.8363 47.1508 64.4402 46.7546 64.4402 46.3019C64.4402 45.8209 64.8505 45.4389 65.3457 45.453C65.8125 45.4813 66.1662 45.8492 66.1521 46.3302C66.1379 46.7971 65.7418 47.1649 65.2891 47.1649Z" fill="#121212"/>
</g>
</g>
<defs>
<linearGradient id="paint0_linear_48_70" x1="-10.3354" y1="69.6555" x2="114.182" y2="60.4247" gradientUnits="userSpaceOnUse">
<stop stop-color="#009FFE"/>
<stop offset="0.51" stop-color="#00D3FF"/>
<stop offset="1" stop-color="#009FFE"/>
</linearGradient>
</defs>
</svg>
