<svg width="100" height="100" viewBox="0 0 100 100" fill="none" xmlns="http://www.w3.org/2000/svg">
<g id="icon">
<circle id="Ellipse 7" cx="50" cy="50" r="50" fill="url(#paint0_linear_48_106)"/>
<g id="Group 2471">
<path id="Vector" d="M77.355 27.995C77.072 28.3205 76.7607 28.6176 76.2796 28.4195C75.7985 28.2214 75.7561 27.8111 75.7702 27.3583C75.7844 26.9762 75.7844 26.58 75.7702 26.1979C75.7419 25.3065 75.1759 24.7122 74.2986 24.6273C74.1571 24.6131 74.0156 24.6131 73.8741 24.6131C69.6715 24.6131 65.4547 24.6131 61.2521 24.6131C59.9078 24.6131 59.3559 25.165 59.3559 26.5093C59.3559 28.5044 59.3559 30.4996 59.3559 32.5089C59.3559 33.7259 59.8371 34.2353 61.0398 34.3626C62.2001 34.4758 63.0067 35.3673 63.035 36.5842C63.0492 37.5323 63.035 38.4803 63.1482 39.4567C63.6293 38.6643 64.0963 37.8719 64.5774 37.0653C64.8745 36.5701 65.1858 36.0748 65.483 35.5654C65.95 34.7305 66.6716 34.3485 67.6197 34.3485C69.7422 34.3626 71.8647 34.3485 73.9873 34.3485C75.2325 34.3485 75.7985 33.7825 75.7985 32.5372C75.7985 32.2542 75.8127 31.9712 75.7985 31.6882C75.7702 31.2354 75.8693 30.8109 76.3504 30.6553C76.8315 30.4996 77.1569 30.7685 77.3975 31.1647C77.3975 31.9146 77.3975 32.6504 77.3975 33.4004C77.1994 33.8108 77.072 34.2636 76.8173 34.6315C76.2089 35.5229 75.3174 35.9475 74.242 35.9475C72.0911 35.9475 69.9262 35.9616 67.7753 35.9333C67.3084 35.9333 67.0254 36.089 66.799 36.4852C65.8651 38.07 64.917 39.6407 63.9689 41.2113C63.502 41.9754 62.6813 42.1735 62.0303 41.7066C61.6341 41.4236 61.4785 41.0415 61.4785 40.5604C61.4785 39.3011 61.4785 38.0558 61.4785 36.7965C61.4785 36.1314 61.337 35.9899 60.7002 35.9333C59.0871 35.8059 57.8419 34.5324 57.8136 32.891C57.7711 30.6128 57.7711 28.3346 57.8136 26.0564C57.8419 24.5707 58.8465 23.4387 60.304 23.0991C60.3889 23.0849 60.4597 23.0283 60.5446 23C65.2566 23 69.9545 23 74.6665 23C75.374 23.2123 76.1098 23.3962 76.5626 24.0188C76.9022 24.4858 77.1428 25.0376 77.4258 25.547C77.355 26.3678 77.355 27.1743 77.355 27.995Z" fill="#121212"/>
<path id="Vector_2" d="M34.8618 45.0745C34.5647 45.0745 34.2675 45.0745 33.9704 45.0745C32.4704 45.0603 31.3667 44.0274 31.3243 42.5416C31.296 41.5228 31.296 40.4898 31.3243 39.471C31.3526 38.5937 31.7346 37.8862 32.4563 37.3485C32.6119 37.2353 32.7534 36.9664 32.7534 36.7683C32.81 35.3533 32.6827 33.9241 32.8666 32.5374C33.376 28.7451 36.4891 26.0708 40.3238 26.0283C43.0972 26 45.8707 26.0142 48.6583 26.0283C50.611 26.0425 51.9694 27.2594 52.1958 29.198C52.2241 29.4951 52.3515 29.5659 52.6203 29.5942C54.4457 29.7498 55.7334 31.0375 55.8324 32.8629C55.889 34.1364 55.8607 35.4099 55.8466 36.6834C55.8466 37.0089 55.9173 37.2211 56.2145 37.4192C56.9503 37.9286 57.2899 38.6503 57.2899 39.5559C57.2899 41.5228 57.3041 43.4755 57.2899 45.4424C57.2758 47.2253 55.9315 48.6828 54.1486 48.6404C53.0024 48.6121 52.2383 48.9092 51.6015 49.8997C51.1912 50.5365 50.4412 50.961 49.861 51.5128C49.7054 51.6544 49.5639 51.8949 49.5497 52.093C49.5073 52.6873 49.5214 53.2958 49.5356 53.8901C49.5497 54.7957 49.9318 55.1636 50.8091 55.1636C53.3845 55.1636 55.9739 55.1636 58.5493 55.1636C60.8982 55.1636 62.2566 56.6494 62.0868 58.9842C62.0444 59.6492 62.0019 60.3284 61.9878 60.9935C61.9878 61.1916 62.0585 61.4039 62.1717 61.5737C64.0396 64.1914 64.9735 67.0922 64.9593 70.3185C64.9593 70.8279 64.9593 71.3373 64.9593 71.8609C64.9593 72.5259 65.0018 73.1344 65.3414 73.7853C66.1621 75.3418 65.0159 77.1672 63.2047 77.3087C63.0632 77.3228 62.9217 77.3087 62.7802 77.3087C50.4554 77.3087 38.1305 77.3087 25.8057 77.3087C24.334 77.3087 23.3435 76.587 23.0605 75.3135C22.9049 74.6343 23.0605 74.0258 23.4001 73.4315C23.5275 73.2051 23.6265 72.9221 23.6265 72.6533C23.6548 70.6722 23.5416 68.6912 24.0369 66.7385C24.5039 64.9131 25.2538 63.2434 26.3151 61.701C26.4849 61.4463 26.5839 61.0925 26.5839 60.7812C26.5981 60.0454 26.499 59.2955 26.4849 58.5597C26.4424 56.5928 27.8292 55.1778 29.8243 55.1636C32.5129 55.1495 35.2014 55.1636 37.89 55.1636C38.5692 55.1636 38.9654 54.8806 39.022 54.1872C39.0786 53.4373 39.0644 52.6732 39.0503 51.9091C39.0503 51.7817 38.9371 51.6119 38.8239 51.5411C36.6164 50.0271 35.3429 47.9328 34.9184 45.3009C34.9326 45.2443 34.9043 45.1735 34.8618 45.0745ZM26.7962 64.2481C25.3246 66.7385 25.1123 69.4553 25.268 72.2429C25.933 72.2429 26.5698 72.2429 27.1216 72.2429C27.1216 71.4505 27.1216 70.7147 27.1216 69.9789C27.1216 69.5119 27.4046 69.2431 27.8433 69.2006C28.2537 69.1582 28.565 69.3846 28.664 69.7949C28.7206 70.0213 28.7206 70.2477 28.7348 70.4741C28.7772 71.0685 28.8055 71.6628 28.848 72.2429C33.0364 72.2429 37.14 72.2429 41.286 72.2429C41.2577 72.059 41.2577 71.9033 41.187 71.7901C40.7766 71.0543 40.437 70.2619 39.9276 69.611C37.8192 66.9649 38.4277 63.0594 41.2577 61.2623C41.7247 60.9652 42.1916 60.8378 42.701 61.1067C43.1963 61.3755 43.3378 61.8284 43.3378 62.3519C43.3378 63.1443 43.3378 63.9367 43.3378 64.7433C43.3519 66.2857 43.1538 66.031 44.7104 66.0734C45.1632 66.0876 45.3047 65.9036 45.2905 65.4791C45.2764 64.3896 45.2764 63.2858 45.2905 62.1963C45.3047 61.1916 46.2527 60.668 47.1301 61.135C47.2999 61.2199 47.4697 61.3331 47.6253 61.4463C50.3139 63.399 50.7525 67.1488 48.5734 69.7242C47.9508 70.46 47.498 71.2383 47.3282 72.2429C51.4883 72.2429 55.606 72.2429 59.7945 72.2429C59.8087 72.0165 59.8228 71.8043 59.837 71.592C60.0634 67.3894 60.2756 63.1868 60.5162 58.9842C60.6011 57.371 60.0351 56.7484 58.4078 56.7484C49.012 56.7484 39.6304 56.7484 30.2347 56.7484C30.0224 56.7484 29.8102 56.7343 29.5979 56.7626C28.6923 56.8616 28.0839 57.5267 28.0839 58.4323C28.0839 58.9134 28.1263 59.3804 28.1405 59.8615C28.2537 61.9416 28.381 64.0216 28.4801 66.1159C28.5084 66.6677 28.2112 67.0073 27.7584 67.0498C27.2631 67.0922 26.9377 66.7809 26.8952 66.2008C26.8669 65.564 26.8386 64.9131 26.7962 64.2481ZM52.21 41.0558C50.6818 40.7021 50.3705 40.2917 50.3705 38.7635C50.3705 37.9003 50.3846 37.023 50.3705 36.1599C50.3422 34.9146 49.5073 34.1222 48.2621 34.1364C47.9083 34.1364 47.5687 34.2354 47.215 34.3062C46.6065 34.4194 46.0122 34.5892 45.4037 34.6599C43.9038 34.858 42.4605 34.5892 41.003 34.2071C39.3474 33.7685 38.173 34.8439 38.2579 36.3438C38.3145 37.2919 38.2862 38.2541 38.272 39.2022C38.2579 40.1644 37.6919 40.8011 36.7579 40.9568C36.6589 40.9709 36.5598 40.9992 36.3617 41.0558C36.4325 42.4709 36.3476 43.9 36.574 45.2868C37.3523 49.829 42.036 52.659 46.4508 51.3713C47.4272 51.0883 48.347 50.6638 49.2101 49.9563C48.7149 49.928 48.3328 49.9139 47.9508 49.8573C46.9461 49.7016 46.1961 48.8668 46.1395 47.8621C46.0829 46.8291 46.7339 45.7679 47.7385 45.6547C49.1111 45.5132 50.5544 45.2302 51.8704 46.1216C52.4081 44.466 52.1109 42.7539 52.21 41.0558ZM36.673 39.4427C36.673 38.3814 36.6589 37.4475 36.673 36.5136C36.673 36.1316 36.673 35.7354 36.7579 35.3533C37.2108 33.2449 39.2625 32.0704 41.5266 32.7072C43.4227 33.2449 45.2764 33.2591 47.1584 32.6931C47.9366 32.4525 48.729 32.4808 49.5073 32.7355C51.0072 33.2308 51.927 34.5467 51.9553 36.2165C51.9694 37.2636 51.9553 38.2965 51.9553 39.4286C52.5779 39.2163 53.1156 39.0324 53.6675 38.8484C54.0778 38.7069 54.2618 38.4239 54.2618 38.0135C54.2618 36.358 54.2901 34.6882 54.2476 33.0327C54.2193 31.9289 53.4977 31.2497 52.3939 31.179C51.3327 31.1224 50.7101 30.5281 50.611 29.4527C50.512 28.3065 49.8186 27.6414 48.6724 27.6273C45.899 27.6131 43.1114 27.5848 40.3379 27.6273C37.2249 27.6839 34.8194 29.7074 34.4373 32.7921C34.2392 34.5609 34.3807 36.3863 34.3807 38.1833C34.3807 38.3673 34.5647 38.6503 34.7345 38.721C35.3288 38.9899 35.9514 39.188 36.673 39.4427ZM44.3425 75.7239C50.4129 75.7239 56.4692 75.7239 62.5396 75.7239C62.6953 75.7239 62.8651 75.7239 63.0208 75.7239C63.6434 75.6956 64.0254 75.3277 64.0113 74.79C63.9971 74.2664 63.6434 73.9268 63.0349 73.8985C62.6104 73.8843 62.1859 73.8985 61.7614 73.8985C49.7903 73.8985 37.8192 73.8985 25.8481 73.8985C25.0416 73.8985 24.6171 74.2098 24.6029 74.8041C24.6029 75.3984 25.0416 75.7239 25.834 75.738C25.933 75.738 26.0462 75.738 26.1453 75.738C32.2157 75.7239 38.2862 75.7239 44.3425 75.7239ZM41.753 62.9179C41.5549 63.0877 41.4558 63.1585 41.3709 63.2434C39.9842 64.6867 39.871 66.9932 41.1587 68.5639C41.9935 69.5827 42.6444 70.6581 42.8708 71.9741C42.885 72.0873 43.0548 72.2571 43.1538 72.2712C43.9887 72.2995 44.8377 72.2854 45.6867 72.2854C45.899 70.8138 46.564 69.6393 47.4555 68.5497C48.7573 66.9507 48.63 64.7009 47.2291 63.2292C47.1442 63.1302 47.031 63.0736 46.8612 62.9462C46.8612 63.9509 46.8754 64.8707 46.8612 65.7904C46.8329 66.8658 46.0405 67.6441 44.9651 67.6724C44.6113 67.6866 44.2576 67.6724 43.9038 67.6724C42.4463 67.6724 41.7388 66.9507 41.7247 65.4791C41.753 64.6726 41.753 63.866 41.753 62.9179ZM40.7342 52.5741C40.6634 53.4797 40.6068 54.3146 40.5502 55.1353C43.0548 55.1353 45.6018 55.1353 48.064 55.1353C48.0074 54.2721 47.9508 53.4514 47.88 52.5883C45.5028 53.4939 43.1397 53.508 40.7342 52.5741ZM63.3462 72.2712C63.5019 69.4553 63.3179 66.7385 61.818 64.2481C61.6765 66.9083 61.535 69.5827 61.3935 72.2712C62.0868 72.2712 62.6953 72.2712 63.3462 72.2712ZM53.7948 43.4755C54.1769 43.4755 54.474 43.4897 54.7712 43.4755C55.2523 43.4472 55.6485 43.1784 55.6626 42.7256C55.7192 41.5652 55.6768 40.4191 55.6768 39.3861C55.1249 39.7257 54.5448 40.0653 53.9929 40.4332C53.8939 40.4898 53.7948 40.6455 53.7948 40.7445C53.7807 41.636 53.7948 42.5275 53.7948 43.4755ZM34.8194 43.4755C34.8194 42.5275 34.8194 41.6077 34.8052 40.7021C34.8052 40.603 34.7062 40.4757 34.6213 40.4332C34.0553 40.0795 33.4892 39.7399 32.9515 39.4003C32.9515 40.4474 32.9232 41.6077 32.9657 42.7539C32.9798 43.1784 33.3477 43.4331 33.7722 43.4755C34.0977 43.5038 34.4373 43.4755 34.8194 43.4755ZM55.6768 44.9754C55.0117 45.0179 54.3608 45.0745 53.7524 45.1169C53.6109 45.782 53.4694 46.4046 53.3279 47.0414C55.0542 47.1829 55.8041 46.5037 55.6768 44.9754ZM49.2667 48.3149C49.6063 48.3149 49.9318 48.329 50.2714 48.3149C50.6393 48.3007 50.894 48.1026 50.894 47.7347C50.894 47.3668 50.6393 47.1687 50.2714 47.1687C49.6346 47.1687 48.9979 47.1687 48.3753 47.1687C48.0074 47.1687 47.7668 47.3668 47.7668 47.7489C47.7668 48.1026 48.0074 48.3007 48.3328 48.3149C48.63 48.3432 48.9554 48.3149 49.2667 48.3149Z" fill="#121212"/>
<path id="Vector_3" d="M67.5347 32.2826C65.8508 32.2826 64.1811 32.2826 62.4972 32.2826C62.2991 32.2826 62.101 32.2826 61.9171 32.2401C61.5492 32.1552 61.3369 31.9005 61.3228 31.5326C61.3086 31.1364 61.4926 30.8534 61.8888 30.7402C62.0869 30.6836 62.3133 30.6836 62.5255 30.6836C65.865 30.6836 69.2045 30.6836 72.5439 30.6836C73.4071 30.6836 73.775 30.9241 73.775 31.4902C73.775 32.0562 73.4212 32.2684 72.5298 32.2684C70.86 32.2826 69.1903 32.2826 67.5347 32.2826Z" fill="#121212"/>
<path id="Vector_4" d="M69.544 28.5326C68.4261 28.5326 67.3224 28.5326 66.2046 28.5326C65.5961 28.5326 65.2282 28.2213 65.2423 27.726C65.2565 27.2591 65.6102 26.9478 66.1904 26.9478C68.3978 26.9478 70.6053 26.9478 72.8127 26.9478C73.4353 26.9478 73.7749 27.2591 73.7608 27.7685C73.7466 28.2637 73.4353 28.5326 72.8269 28.5326C71.7373 28.5467 70.6477 28.5326 69.544 28.5326Z" fill="#121212"/>
<path id="Vector_5" d="M62.5396 28.5329C61.6906 28.5329 61.3085 28.2924 61.3226 27.7264C61.3368 27.1745 61.7047 26.934 62.5679 26.9481C62.7094 26.9481 62.8509 26.934 62.9924 26.9623C63.4452 27.0189 63.7565 27.3726 63.7423 27.7688C63.7282 28.1933 63.4169 28.5046 62.9499 28.5329C62.8084 28.5471 62.6669 28.5329 62.5396 28.5329Z" fill="#121212"/>
</g>
</g>
<defs>
<linearGradient id="paint0_linear_48_106" x1="-10.3354" y1="69.6555" x2="114.182" y2="60.4247" gradientUnits="userSpaceOnUse">
<stop stop-color="#009FFE"/>
<stop offset="0.51" stop-color="#00D3FF"/>
<stop offset="1" stop-color="#009FFE"/>
</linearGradient>
</defs>
</svg>
