<svg width="100" height="100" viewBox="0 0 100 100" fill="none" xmlns="http://www.w3.org/2000/svg">
<g id="icon">
<circle id="Ellipse 7" cx="50" cy="50" r="50" fill="url(#paint0_linear_48_35)"/>
<g id="Group">
<path id="Vector" d="M56.359 69.8097C56.359 71.7978 56.359 73.801 56.359 75.8041C56.359 76.716 56.0601 77 55.1484 77C51.7709 77 48.3934 77 45.0009 77C44.0893 77 43.8053 76.701 43.8053 75.7892C43.8053 73.9206 43.7904 72.052 43.8053 70.1834C43.8053 69.8545 43.7007 69.705 43.3869 69.5854C42.5948 69.3014 41.8176 68.9875 41.0555 68.6287C40.6968 68.4493 40.5025 68.5241 40.2484 68.7932C38.9632 70.0937 37.663 71.3942 36.3628 72.6798C35.6753 73.3675 35.2718 73.3824 34.6142 72.6948C32.5967 70.587 30.4147 68.6287 28.6214 66.3416C18.414 53.2166 22.5837 33.9776 37.2744 26.1445C47.6461 20.6134 60.4987 22.5119 68.8379 30.7935C70.1082 32.0642 71.3785 33.3348 72.6488 34.5905C73.3662 35.323 73.3662 35.6668 72.6339 36.4142C71.3486 37.6998 70.0783 38.9854 68.7781 40.2561C68.5091 40.5102 68.4493 40.7045 68.6137 41.0633C68.9724 41.8107 69.2862 42.603 69.5702 43.3803C69.6897 43.6943 69.8242 43.7989 70.168 43.7989C72.0361 43.7839 73.9042 43.7839 75.7723 43.7839C76.6989 43.7839 76.9828 44.068 76.9828 44.9798C76.9828 48.3583 76.9828 51.7367 76.9828 55.13C76.9828 56.0419 76.6989 56.3409 75.7872 56.3409C73.7846 56.3409 71.797 56.3409 69.8093 56.3409C69.3759 57.3574 68.9276 58.3291 68.539 59.3306C68.4942 59.4502 68.6287 59.7043 68.7482 59.8239C70.0484 61.1394 71.3636 62.4399 72.6638 63.7554C73.3662 64.458 73.3662 64.8317 72.6638 65.5493C70.2875 67.9261 67.9113 70.303 65.5351 72.6798C64.8775 73.3376 64.4889 73.3376 63.8314 72.6798C62.5013 71.3643 61.1861 70.0488 59.871 68.7184C59.6319 68.4792 59.4525 68.4493 59.1536 68.5839C58.242 69.0323 57.3304 69.3911 56.359 69.8097ZM34.3602 64.7421C34.4797 64.5627 34.5545 64.3534 34.7039 64.2188C36.7812 62.126 38.8735 60.0332 40.9658 57.9553C41.6383 57.2826 42.0119 57.2826 42.7293 57.9254C45.1653 60.1378 48.0496 61.1245 51.2927 60.7059C55.5519 60.1528 58.6007 57.8208 60.0952 53.7697C61.5896 49.7186 60.7826 45.9814 57.9282 42.7226C57.3005 42.0051 57.2855 41.6463 57.9581 40.9586C60.0354 38.8808 62.0978 36.8029 64.19 34.74C64.3544 34.5905 64.5637 34.4858 64.7579 34.3663C56.5233 26.6677 43.2673 26.4434 34.8384 34.9194C26.3946 43.3953 26.7533 56.6249 34.3602 64.7421ZM33.1496 68.4643C33.9268 69.2566 34.7487 70.0787 35.6006 70.9308C36.9307 69.6004 38.3056 68.2251 39.6805 66.8648C40.1737 66.3715 40.4577 66.3565 41.0853 66.6256C42.2959 67.1488 43.5214 67.6571 44.7468 68.1354C45.4492 68.4045 45.6136 68.5988 45.6136 69.3762C45.6136 71.1102 45.6136 72.8443 45.6136 74.5933C45.6136 74.7876 45.6136 74.9819 45.6136 75.1763C48.6474 75.1763 51.6065 75.1763 54.5805 75.1763C54.5805 73.1881 54.5955 71.2447 54.5805 69.3014C54.5805 68.7483 54.7898 68.3895 55.3128 68.1803C56.613 67.672 57.8983 67.1339 59.1835 66.5807C59.6767 66.3715 60.0802 66.4014 60.4538 66.79C61.2011 67.5524 61.9633 68.2999 62.7105 69.0473C63.3531 69.6901 63.9958 70.3329 64.5936 70.9308C66.7307 68.7932 68.8229 66.7153 70.9302 64.6075C70.8405 64.5178 70.7209 64.3833 70.5864 64.2487C69.346 63.008 68.1056 61.7673 66.8652 60.5265C66.357 60.0183 66.357 59.7492 66.641 59.0765C67.1641 57.8656 67.6722 56.6398 68.1504 55.4141C68.4045 54.7862 68.6137 54.5919 69.3012 54.5919C71.0497 54.5919 72.8132 54.5919 74.5618 54.5919C74.756 54.5919 74.9653 54.5919 75.1595 54.5919C75.1595 51.5722 75.1595 48.6124 75.1595 45.6226C73.1719 45.6226 71.244 45.6226 69.3012 45.6226C68.6137 45.6226 68.3895 45.4283 68.1504 44.8005C67.6722 43.5747 67.1641 42.3489 66.641 41.138C66.3421 40.4653 66.357 40.1963 66.8652 39.688C68.1056 38.4473 69.346 37.2065 70.5864 35.9658C70.7209 35.8312 70.8554 35.6817 70.9302 35.607C70.0634 34.74 69.2563 33.9327 68.4643 33.1554C65.565 36.0555 62.6208 39.0004 59.6767 41.9453C64.3694 47.551 63.0094 54.9357 59.1238 58.8523C57.1062 60.8853 54.715 62.1559 51.8755 62.5446C48.1244 63.0678 44.7917 62.0363 41.9372 59.7043C38.9632 62.6343 36.0191 65.5792 33.1496 68.4643ZM67.1192 31.6904C57.3901 22.5119 41.2199 22.4521 31.4609 33.275C21.8812 43.8886 23.7195 58.9718 31.7149 67.104C32.1185 66.7153 32.522 66.3117 32.9404 65.923C24.4219 56.6847 25.1093 42.8721 32.8358 34.4559C36.6168 30.3301 41.2946 27.7888 46.8391 27.0414C54.0873 26.0548 60.4389 28.1326 65.8938 32.9162C66.3122 32.4977 66.7008 32.109 67.1192 31.6904Z" fill="black"/>
<path id="Vector_2" d="M49.1858 41.4519C49.1858 39.9272 49.1858 38.3874 49.1858 36.8627C49.1858 36.1601 49.5295 35.7565 50.0825 35.7565C50.6354 35.7565 50.9642 36.175 50.9642 36.8776C50.9642 39.9571 50.9792 43.0365 50.9642 46.1159C50.9642 46.4897 51.0539 46.6541 51.4275 46.8036C52.9369 47.4015 53.8486 48.9562 53.6543 50.5109C53.4451 52.1702 52.1598 53.4558 50.5009 53.665C48.9467 53.8594 47.3924 52.9475 46.7946 51.4377C46.6452 51.064 46.4658 50.9892 46.1072 50.9892C44.2092 51.0042 42.2962 51.0042 40.3982 50.9892C39.7407 50.9892 39.3372 50.6304 39.3372 50.0923C39.3372 49.5392 39.7407 49.1954 40.3982 49.1954C42.2962 49.1954 44.2092 49.1804 46.1072 49.1954C46.4808 49.1954 46.6601 49.1057 46.7946 48.7469C47.1384 47.835 47.7959 47.1623 48.7076 46.8185C49.126 46.6541 49.2007 46.4448 49.2007 46.0412C49.1709 44.5015 49.1858 42.9767 49.1858 41.4519ZM50.0825 51.8861C51.0539 51.9011 51.8759 51.0939 51.8759 50.1222C51.8908 49.1356 51.0987 48.3283 50.1273 48.3134C49.126 48.2984 48.3041 49.1057 48.3041 50.1072C48.3041 51.064 49.0961 51.8712 50.0825 51.8861Z" fill="black"/>
<path id="Vector_3" d="M57.3451 50.137C57.2704 48.2086 56.6128 46.5493 55.2827 45.174C54.9539 44.8302 54.7597 44.4864 54.9539 44.023C55.2229 43.3951 55.9552 43.3054 56.4783 43.8436C57.7935 45.189 58.6304 46.8034 58.9143 48.6571C59.7662 54.3077 55.4621 59.2109 49.7531 59.0464C47.4965 58.9866 45.5387 58.1346 43.9097 56.5799C43.3867 56.0866 43.3269 55.5783 43.7304 55.1598C44.104 54.7562 44.642 54.816 45.1501 55.2794C49.245 59.0763 55.7012 57.2376 57.0761 51.886C57.2256 51.318 57.2704 50.72 57.3451 50.137Z" fill="black"/>
<path id="Vector_4" d="M49.2004 31.2567C49.2004 30.9428 49.1855 30.6139 49.2004 30.3C49.2452 29.8067 49.6189 29.4629 50.0821 29.4629C50.5454 29.4629 50.9489 29.8067 50.9639 30.3C50.9938 30.9279 50.9938 31.5707 50.9639 32.1985C50.934 32.6918 50.5454 33.0356 50.0821 33.0356C49.6189 33.0356 49.2303 32.6918 49.1855 32.1985C49.1705 31.8995 49.2004 31.5707 49.2004 31.2567Z" fill="black"/>
<path id="Vector_5" d="M31.2217 50.9742C30.9228 50.9742 30.6239 50.9891 30.325 50.9742C29.8318 50.9293 29.4731 50.5706 29.4731 50.1071C29.4582 49.6138 29.8168 49.2252 30.3399 49.1953C30.9526 49.1654 31.5803 49.1654 32.1931 49.1953C32.6862 49.2102 33.0449 49.5989 33.0449 50.0623C33.0599 50.5556 32.7012 50.9293 32.1781 50.9742C31.8493 51.0041 31.5355 50.9891 31.2217 50.9742Z" fill="black"/>
<path id="Vector_6" d="M35.436 40.9438C35.436 41.7212 34.8382 42.1995 34.2852 41.9454C33.6276 41.6464 33 41.2727 32.4022 40.8541C32.0286 40.5851 32.0136 40.1366 32.2527 39.7479C32.4918 39.3593 32.8804 39.1948 33.3138 39.4041C33.9116 39.7031 34.4944 40.032 35.0474 40.4057C35.2716 40.5402 35.3612 40.8392 35.436 40.9438Z" fill="black"/>
<path id="Vector_7" d="M42.1911 34.5455C41.8922 34.8744 41.7128 35.2631 41.4438 35.3378C41.1449 35.4126 40.6368 35.3229 40.4575 35.0986C40.0241 34.5455 39.6953 33.9177 39.3815 33.2749C39.1872 32.9012 39.3366 32.4826 39.6953 32.3032C39.9792 32.1687 40.5322 32.1089 40.6518 32.2584C41.2197 32.961 41.6531 33.7234 42.1911 34.5455Z" fill="black"/>
<path id="Vector_8" d="M60.9171 32.8415C60.8125 33.1554 60.7826 33.3198 60.7079 33.4693C60.4239 33.9776 60.1549 34.4858 59.8411 34.9642C59.5422 35.4425 59.0191 35.5771 58.5857 35.308C58.1673 35.0539 58.0328 34.5606 58.2868 34.0822C58.5708 33.559 58.8697 33.0358 59.1835 32.5425C59.4226 32.1688 59.8112 32.0043 60.1998 32.1688C60.4987 32.3183 60.7079 32.6322 60.9171 32.8415Z" fill="black"/>
<path id="Vector_9" d="M35.4364 59.2258C35.3467 59.3454 35.2122 59.6593 34.988 59.8237C34.5098 60.1675 33.9718 60.4516 33.4487 60.7206C32.9705 60.9748 32.4923 60.8402 32.2382 60.4217C31.9841 59.9882 32.1037 59.465 32.5819 59.1809C33.0901 58.867 33.5982 58.568 34.1212 58.299C34.7639 57.9551 35.4364 58.3737 35.4364 59.2258Z" fill="black"/>
<path id="Vector_10" d="M64.8324 65.8332C65.1313 65.5342 65.5199 65.1306 65.9084 64.727C66.3269 65.1456 66.7304 65.5342 67.1638 65.9528C66.7453 66.3415 66.3568 66.7301 65.9234 67.1337C65.5796 66.7152 65.1911 66.2667 64.8324 65.8332Z" fill="black"/>
<path id="Vector_11" d="M73.396 49.2253C73.396 49.8233 73.396 50.3614 73.396 50.9444C72.8281 50.9444 72.2602 50.9444 71.6475 50.9444C71.6475 50.3913 71.6475 49.8233 71.6475 49.2253C72.2154 49.2253 72.7683 49.2253 73.396 49.2253Z" fill="black"/>
<path id="Vector_12" d="M49.2153 73.3674C49.2153 72.7695 49.2153 72.2164 49.2153 71.6334C49.7982 71.6334 50.3511 71.6334 50.934 71.6334C50.934 72.1865 50.934 72.7545 50.934 73.3674C50.381 73.3674 49.8131 73.3674 49.2153 73.3674Z" fill="black"/>
</g>
</g>
<defs>
<linearGradient id="paint0_linear_48_35" x1="-10.3354" y1="69.6555" x2="114.182" y2="60.4247" gradientUnits="userSpaceOnUse">
<stop stop-color="#009FFE"/>
<stop offset="0.51" stop-color="#00D3FF"/>
<stop offset="1" stop-color="#009FFE"/>
</linearGradient>
</defs>
</svg>
