<svg width="100" height="100" viewBox="0 0 100 100" fill="none" xmlns="http://www.w3.org/2000/svg">
<g id="icon">
<circle id="Ellipse 7" cx="50" cy="50" r="50" fill="url(#paint0_linear_48_91)"/>
<g id="Group 2470">
<path id="Vector" d="M51.9044 76.3991L51.9047 76.3988C54.6871 74.6142 57.4275 72.7873 60.1688 70.9456C61.2133 70.2403 61.7943 69.2411 61.903 67.978C61.9878 66.9654 62.0682 65.9494 62.1487 64.9325C62.2679 63.4259 62.3872 61.9174 62.5215 60.4154C62.5389 60.1479 62.6993 59.8479 62.8915 59.6709C63.3217 59.2549 63.7657 58.8532 64.2075 58.4535L64.2084 58.4527C64.6516 58.0517 65.0926 57.6526 65.5193 57.2399C71.9746 50.9946 75.6008 43.3793 76.5534 34.4575C76.6024 33.9744 76.6514 33.4878 76.7004 33.0011L76.701 32.9954C76.7499 32.5094 76.7989 32.0233 76.8478 31.5407C76.8478 30.1009 76.8479 28.6734 76.8757 27.2179C76.8485 27.0875 76.8246 26.9544 76.8012 26.8237L76.801 26.8226C76.7764 26.6853 76.7522 26.5507 76.7247 26.4199C76.3446 24.6697 74.9495 23.4237 73.1862 23.2336C73.1861 23.2335 73.1859 23.2335 73.1857 23.2335L73.2017 23.0844C73.1113 23.0753 73.0267 23.0546 72.9404 23.0335C72.8925 23.0218 72.8442 23.01 72.794 23L51.9044 76.3991ZM51.9044 76.3991C50.2137 77.4907 48.0678 76.4975 47.7331 74.5043C47.4194 72.5833 47.1301 70.6623 46.8423 68.7515C46.8208 68.6088 46.7993 68.4661 46.7779 68.3236C46.7691 68.2404 46.7487 68.1642 46.7304 68.1038C46.7222 68.0769 46.7154 68.0556 46.7098 68.0382C46.7008 68.0098 46.6949 67.9915 46.6917 67.9755L46.6676 67.8549H46.5446C46.371 67.8549 46.2043 67.8583 46.0421 67.8615C45.7332 67.8676 45.441 67.8734 45.15 67.8554C44.0946 67.7602 43.2274 67.3011 42.4759 66.5361L42.4755 66.5356C39.4945 63.5265 36.5136 60.5456 33.5187 57.5648L33.5183 57.5643C32.4661 56.5258 31.9814 55.3081 32.2109 53.8307C32.2273 53.7469 32.2273 53.6652 32.2273 53.599V53.5938C32.2273 53.5576 32.2186 53.5232 32.2109 53.4964C32.203 53.4686 32.1916 53.4343 32.1784 53.3948L32.1774 53.3917L32.1487 53.3058L32.0594 53.2911C31.0329 53.1224 29.9777 52.9536 28.9222 52.7987C28.466 52.7273 28.0117 52.6604 27.5591 52.5938C26.8488 52.4892 26.1425 52.3852 25.4388 52.265C23.5405 51.9307 22.5357 49.8098 23.5573 48.1908C25.3697 45.3388 27.2666 42.5144 29.1645 39.7168L29.1649 39.7162C29.8254 38.7322 30.8216 38.2043 32.0328 38.109L32.0329 38.109C32.6762 38.0578 33.3183 38.0057 33.9598 37.9537C35.7872 37.8054 37.6098 37.6575 39.4404 37.5327C39.6787 37.5173 39.8738 37.4588 40.0471 37.358C40.2186 37.2583 40.3613 37.1215 40.5 36.9609L40.5005 36.9603C43.5568 33.3853 47.0168 30.3043 51.0903 27.9666C55.2883 25.5598 59.8242 24.2011 64.6168 23.5705L64.6168 23.5705C65.4747 23.4574 66.3372 23.3698 67.2044 23.2817C67.6257 23.2389 68.0482 23.196 68.4718 23.15H68.4721H68.4806H68.4891H68.4976H68.5061H68.5145H68.523H68.5315H68.54H68.5485H68.557H68.5654H68.5739H68.5824H68.5909H68.5994H68.6078H68.6163H68.6248H68.6333H68.6418H68.6502H68.6587H68.6672H68.6757H68.6841H68.6926H68.7011H68.7096H68.7181H68.7265H68.735H68.7435H68.752H68.7604H68.7689H68.7774H68.7859H68.7943H68.8028H68.8113H68.8197H68.8282H68.8367H68.8452H68.8536H68.8621H68.8706H68.879H68.8875H68.896H68.9045H68.9129H68.9214H68.9299H68.9383H68.9468H68.9553H68.9637H68.9722H68.9807H68.9891H68.9976H69.0061H69.0145H69.023H69.0315H69.04H69.0484H69.0569H69.0653H69.0738H69.0823H69.0907H69.0992H69.1077H69.1161H69.1246H69.1331H69.1415H69.15H69.1585H69.1669H69.1754H69.1838H69.1923H69.2008H69.2092H69.2177H69.2262H69.2346H69.2431H69.2515H69.26H69.2685H69.2769H69.2854H69.2938H69.3023H69.3108H69.3192H69.3277H69.3361H69.3446H69.3531H69.3615H69.37H69.3784H69.3869H69.3953H69.4038H69.4123H69.4207H69.4292H69.4376H69.4461H69.4545H69.463H69.4715H69.4799H69.4884H69.4968H69.5053H69.5137H69.5222H69.5306H69.5391H69.5475H69.556H69.5645H69.5729H69.5814H69.5898H69.5983H69.6067H69.6152H69.6236H69.6321H69.6405H69.649H69.6574H69.6659H69.6743H69.6828H69.6912H69.6997H69.7081H69.7166H69.7251H69.7335H69.742H69.7504H69.7589H69.7673H69.7758H69.7842H69.7927H69.8011H69.8096H69.818H69.8265H69.8349H69.8434H69.8518H69.8603H69.8687H69.8772H69.8856H69.8941H69.9025H69.9109H69.9194H69.9278H69.9363H69.9447H69.9532H69.9616H69.9701H69.9785H69.987H69.9954H70.0039H70.0123H70.0208H70.0292H70.0377H70.0461H70.0546H70.063H70.0715H70.0799H70.0883H70.0968H70.1052H70.1137H70.1221H70.1306H70.139H70.1475H70.1559H70.1644H70.1728H70.1813H70.1897H70.1981H70.2066H70.215H70.2235H70.2319H70.2404H70.2488H70.2573H70.2657H70.2742H70.2826H70.291H70.2995H70.3079H70.3164H70.3248H70.3333H70.3417H70.3502H70.3586H70.367H70.3755H70.3839H70.3924H70.4008H70.4093H70.4177H70.4262H70.4346H70.443H70.4515H70.4599H70.4684H70.4768H70.4853H70.4937H70.5022H70.5106H70.519H70.5275H70.5359H70.5444H70.5528H70.5613H70.5697H70.5782H70.5866H70.595H70.6035H70.6119H70.6204H70.6288H70.6373H70.6457H70.6542H70.6626H70.671H70.6795H70.6879H70.6964H70.7048H70.7133H70.7217H70.7301H70.7386H70.747H70.7555H70.7639H70.7724H70.7808H70.7893H70.7977H70.8061H70.8146H70.823H70.8315H70.8399H70.8484H70.8568H70.8653H70.8737H70.8821H70.8906H70.899H70.9075H70.9159H70.9244H70.9328H70.9413H70.9497H70.9581H70.9666H70.975H70.9835H70.9919H71.0004H71.0088H71.0173H71.0257H71.0342H71.0426H71.051H71.0595H71.0679H71.0764H71.0848H71.0933H71.1017H71.1102H71.1186H71.1271H71.1355H71.144H71.1524H71.1608H71.1693H71.1777H71.1862H71.1946H71.2031H71.2115H71.22H71.2284H71.2369H71.2453H71.2538H71.2622H71.2707H71.2791H71.2876H71.296H71.3044H71.3129H71.3213H71.3298H71.3382H71.3467H71.3551H71.3636H71.372H71.3805H71.3889H71.3974H71.4058H71.4143H71.4227H71.4312H71.4396H71.4481H71.4565H71.465H71.4734H71.4819H71.4903H71.4988H71.5072H71.5157H71.5241H71.5326H71.541H71.5495H71.5579H71.5664H71.5748H71.5833H71.5917H71.6002H71.6087H71.6171H71.6256H71.634H71.6425H71.6509H71.6594H71.6678H71.6763H71.6847H71.6932H71.7016H71.7101H71.7185H71.727H71.7355H71.7439H71.7524H71.7608H71.7693H71.7777H71.7862H71.7946H71.8031H71.8116H71.82H71.8285H71.8369H71.8454H71.8538H71.8623H71.8708H71.8792H71.8877H71.8961H71.9046H71.913H71.9215H71.93H71.9384H71.9469H71.9553H71.9638H71.9723H71.9807H71.9892H71.9976H72.0061H72.0146H72.023H72.0315H72.0399H72.0484H72.0569H72.0653H72.0738H72.0823H72.0907H72.0992H72.1076H72.1161H72.1246H72.133H72.1415H72.15H72.1584H72.1669H72.1754H72.1838H72.1923H72.2008H72.2092H72.2177H72.2262H72.2346H72.2431H72.2516H72.26H72.2685H72.277H72.2854H72.2939H72.3024H72.3108H72.3193H72.3278H72.3362H72.3447H72.3532H72.3616H72.3701H72.3786H72.3871H72.3955H72.404H72.4125H72.4209H72.4294H72.4379H72.4464H72.4548H72.4633H72.4718H72.4803H72.4887H72.4972H72.5057H72.5142H72.5226H72.5311H72.5396H72.5481H72.5565H72.565H72.5735H72.582H72.5904H72.5989H72.6074H72.6159H72.6244H72.6328H72.6413H72.6498H72.6583H72.6668H72.6752H72.6837H72.6922H72.7007H72.7092H72.7176H72.7261H72.7346H72.7431H72.7516H72.7601H72.7685H72.777H72.7789L51.9044 76.3991ZM73.9563 27.6431C73.9516 27.8984 73.9473 28.1538 73.9429 28.4093C73.9083 30.4583 73.8735 32.5125 73.6602 34.5446C73.2085 38.8501 72.0224 42.9892 69.9308 46.8048C66.9934 52.1713 62.8283 56.4339 57.8213 59.8754C57.0328 60.4192 56.1917 60.8969 55.3554 61.3718C54.8906 61.6358 54.4273 61.8989 53.9754 62.172L53.975 62.1723C53.8259 62.2618 53.6756 62.3241 53.5148 62.309C53.3518 62.2937 53.2119 62.2026 53.0747 62.0654L53.0746 62.0652C48.0419 57.0185 42.9952 51.9717 37.9484 46.9391C37.8427 46.8403 37.7381 46.7288 37.696 46.5851C37.6509 46.4312 37.6852 46.2731 37.7799 46.0992C41.5462 39.0183 46.811 33.3991 53.9694 29.6858C57.8855 27.65 62.1092 26.6481 66.4808 26.225L66.4824 26.2249C67.1665 26.1658 67.8536 26.1216 68.5388 26.0776C68.9941 26.0484 69.4486 26.0192 69.9007 25.9857L70.0618 25.9738V26.0412C70.2805 26.0404 70.4994 26.0379 70.7187 26.0353C71.2598 26.0291 71.8028 26.0228 72.3493 26.0416L72.3496 26.0416C72.9238 26.0627 73.3514 26.1383 73.6216 26.3958C73.8969 26.6582 73.9704 27.0701 73.9563 27.6431ZM73.9563 27.6431C73.9563 27.6432 73.9563 27.6433 73.9563 27.6434L73.8063 27.6397L73.9563 27.6424C73.9563 27.6427 73.9563 27.6429 73.9563 27.6431ZM50.2955 63.8053L50.5457 63.7377L50.3625 63.5544L50.3624 63.5544C45.7087 58.9007 41.1113 54.3033 36.4295 49.6074L36.2411 49.4185L36.1776 49.6776C35.8261 51.1115 35.4749 52.5444 35.1097 53.9631C35.0189 54.2969 35.0245 54.5949 35.12 54.8712C35.2146 55.1451 35.3931 55.3856 35.6277 55.613C37.6622 57.6264 39.6807 59.6475 41.7015 61.671C42.3756 62.3459 43.0498 63.0211 43.7251 63.6963C43.9025 63.8738 44.0561 64.0325 44.1903 64.1713C44.3371 64.323 44.4608 64.4509 44.5675 64.5534C44.7759 64.7535 44.9517 64.8902 45.1643 64.9536C45.3763 65.0169 45.6047 65.0014 45.9039 64.9479C46.0856 64.9154 46.3052 64.8662 46.5744 64.8061C46.7459 64.7677 46.9376 64.7248 47.1525 64.6789L47.1542 64.6785C47.8156 64.5286 48.4779 64.3328 49.1325 64.1394C49.5235 64.0238 49.9118 63.909 50.2955 63.8053ZM50.4877 73.6516L50.5235 73.8841L50.7192 73.7536C50.8229 73.6845 50.9143 73.6276 50.9996 73.5744C51.0164 73.5639 51.033 73.5536 51.0494 73.5434C51.1467 73.4825 51.2381 73.4242 51.3268 73.358C51.6168 73.1673 51.9072 72.9765 52.1977 72.7857C53.9612 71.6272 55.7304 70.465 57.4686 69.2822C57.7063 69.123 57.897 69.0037 58.0613 68.9009C58.1658 68.8356 58.2596 68.7769 58.3481 68.7189C58.5637 68.5774 58.7276 68.4518 58.843 68.2802C58.9595 68.107 59.0168 67.9022 59.0538 67.6214C59.0884 67.3589 59.107 67.0131 59.1324 66.5425L59.1372 66.4524L59.1374 66.4524V66.4443C59.1374 66.392 59.1432 66.3406 59.1516 66.2834C59.1539 66.2679 59.1565 66.2514 59.1592 66.2341C59.1659 66.1909 59.1734 66.143 59.1787 66.0953L59.1788 66.0954L59.1792 66.0897C59.2214 65.5133 59.2636 64.9404 59.3057 64.3675L59.3062 64.3608C59.3482 63.7901 59.3903 63.2194 59.4323 62.6451L59.4459 62.4593L59.2615 62.4857C59.223 62.4912 59.1964 62.4912 59.1737 62.4912C59.165 62.4912 59.145 62.4909 59.1268 62.4931C59.1128 62.4947 59.079 62.4996 59.0453 62.5227C58.903 62.6045 58.766 62.6944 58.6303 62.7834C58.5769 62.8185 58.5237 62.8534 58.4705 62.8876C56.1874 64.3442 53.7937 65.5479 51.247 66.4434C51.1252 66.4862 50.9853 66.5216 50.8354 66.5569C50.8022 66.5647 50.7685 66.5725 50.7345 66.5804C50.6173 66.6076 50.4963 66.6356 50.3819 66.667C50.2341 66.7075 50.0877 66.7561 49.9621 66.8217C49.8368 66.887 49.7208 66.9751 49.6484 67.1005L49.647 67.103C49.5075 67.3559 49.5283 67.6804 49.5777 67.9785C49.6017 68.1238 49.6347 68.273 49.6663 68.4161L49.6714 68.4395C49.705 68.5916 49.7363 68.736 49.7566 68.8708L49.7566 68.871C49.9956 70.4459 50.2347 72.0066 50.4877 73.6516ZM32.8416 50.5083L32.9709 50.5283L33.0083 50.403C34.0439 46.9326 35.5975 43.8104 37.5876 40.7692L37.756 40.5118L37.4495 40.5376C36.9299 40.5812 36.4186 40.6215 35.9132 40.6614C34.6313 40.7624 33.3879 40.8605 32.1457 41.0019C31.9571 41.0211 31.7801 41.1386 31.638 41.266C31.4914 41.3974 31.3607 41.5584 31.2645 41.699L31.2641 41.6997C30.3909 42.9912 29.5349 44.2894 28.6781 45.5888C28.2101 46.2985 27.7419 47.0086 27.2704 47.7182L27.27 47.7188C27.1586 47.8885 27.0452 48.0601 26.9295 48.2353C26.7103 48.5672 26.4826 48.9118 26.2433 49.2801L26.1167 49.4748L26.3462 49.5101C27.1719 49.6371 27.9875 49.7622 28.7999 49.8867C30.1458 50.093 31.4827 50.2979 32.8416 50.5083Z" fill="#121212" stroke="url(#paint1_linear_48_91)" stroke-width="0.3"/>
<path id="Vector_2" d="M35.4582 66.5493L35.4577 66.5498C32.2104 69.8253 28.9349 73.1008 25.6593 76.3623C25.0107 76.9975 24.1361 76.989 23.5661 76.4064C23.0088 75.8364 23.0143 74.9739 23.6219 74.353C26.8975 71.0633 30.1731 67.7877 33.4627 64.5122L33.4629 64.5119C33.6984 64.2764 33.9541 64.1348 34.2217 64.0801C34.4893 64.0253 34.7791 64.0552 35.0862 64.1794L35.0862 64.1794L35.0901 64.1809C35.6117 64.375 35.9383 64.8829 36.0542 65.5313C35.9947 65.6389 35.9386 65.7543 35.8845 65.8655C35.8509 65.9346 35.8181 66.0021 35.7858 66.0649C35.6894 66.2525 35.589 66.4185 35.4582 66.5493Z" fill="#121212" stroke="url(#paint2_linear_48_91)" stroke-width="0.3"/>
<path id="Vector_3" d="M30.8184 61.7126L30.8184 61.7126L30.8172 61.7139C29.1024 63.4708 27.374 65.2133 25.6177 66.9275L25.6175 66.9276C25.0313 67.5011 24.1697 67.4768 23.6077 66.9153C23.0608 66.355 23.0469 65.4928 23.6219 64.9046C25.3372 63.1753 27.0517 61.4467 28.7942 59.7323L28.7942 59.7323L28.7951 59.7314C29.0218 59.5047 29.2722 59.3737 29.5335 59.3286C29.7952 59.2834 30.078 59.3227 30.3715 59.4531L30.3718 59.4533C30.6492 59.5758 30.848 59.7458 30.9847 59.9803C31.1193 60.2112 31.1996 60.5152 31.2228 60.9195C31.2046 60.9631 31.1863 61.0131 31.1681 61.0632L31.1651 61.0714C31.1398 61.1411 31.1125 61.2159 31.0799 61.2927C31.0142 61.4475 30.9319 61.5991 30.8184 61.7126Z" fill="#121212" stroke="url(#paint3_linear_48_91)" stroke-width="0.3"/>
<path id="Vector_4" d="M40.5445 69.6118L40.5445 69.6118L40.5453 69.6134C40.6818 69.9126 40.7179 70.1945 40.6712 70.4543C40.6244 70.7145 40.4929 70.9629 40.2776 71.1913C39.8361 71.6539 39.3793 72.1081 38.9228 72.5619C38.7706 72.7133 38.6183 72.8646 38.4667 73.0162L38.466 73.0169C37.3692 74.1279 36.2738 75.2372 35.1507 76.3182L35.1503 76.3187C34.2871 77.1561 32.9947 76.7924 32.7148 75.6729C32.5877 75.1643 32.7247 74.7256 33.0831 74.3672L33.0835 74.3668C34.7987 72.6376 36.5128 70.9094 38.2549 69.2094C38.3701 69.1006 38.5272 69.0142 38.6879 68.9406C38.7572 68.9089 38.8246 68.8808 38.8882 68.8542C38.8978 68.8501 38.9073 68.8461 38.9168 68.8422C38.9707 68.8196 39.024 68.797 39.0701 68.7745C39.4794 68.7915 39.7853 68.8688 40.0167 69.0012C40.2522 69.136 40.422 69.3344 40.5445 69.6118Z" fill="#121212" stroke="url(#paint4_linear_48_91)" stroke-width="0.3"/>
<path id="Vector_5" d="M52.2484 40.0123C52.2484 35.7222 55.7105 32.2467 59.9999 32.2467C64.2756 32.2467 67.7655 35.7366 67.7655 40.0123C67.7655 44.2872 64.2904 47.7497 59.9999 47.7638C55.6957 47.7498 52.2484 44.3016 52.2484 40.0123ZM55.1118 40.0123C55.1118 42.7104 57.2738 44.8718 59.971 44.8863C62.6827 44.9008 64.9025 42.6969 64.888 39.9974C64.8735 37.3142 62.684 35.1246 60.0007 35.1101C57.3155 35.0956 55.1118 37.301 55.1118 40.0123Z" fill="#121212" stroke="url(#paint5_linear_48_91)" stroke-width="0.3"/>
</g>
</g>
<defs>
<linearGradient id="paint0_linear_48_91" x1="-10.3354" y1="69.6555" x2="114.182" y2="60.4247" gradientUnits="userSpaceOnUse">
<stop stop-color="#009FFE"/>
<stop offset="0.51" stop-color="#00D3FF"/>
<stop offset="1" stop-color="#009FFE"/>
</linearGradient>
<linearGradient id="paint1_linear_48_91" x1="17.4162" y1="60.6139" x2="84.6873" y2="55.6246" gradientUnits="userSpaceOnUse">
<stop stop-color="#009FFE"/>
<stop offset="0.51" stop-color="#00D3FF"/>
<stop offset="1" stop-color="#009FFE"/>
</linearGradient>
<linearGradient id="paint2_linear_48_91" x1="21.6421" y1="73.0198" x2="38.0819" y2="71.7903" gradientUnits="userSpaceOnUse">
<stop stop-color="#009FFE"/>
<stop offset="0.51" stop-color="#00D3FF"/>
<stop offset="1" stop-color="#009FFE"/>
</linearGradient>
<linearGradient id="paint3_linear_48_91" x1="22.1831" y1="64.9675" x2="32.5559" y2="64.1991" gradientUnits="userSpaceOnUse">
<stop stop-color="#009FFE"/>
<stop offset="0.51" stop-color="#00D3FF"/>
<stop offset="1" stop-color="#009FFE"/>
</linearGradient>
<linearGradient id="paint4_linear_48_91" x1="31.6582" y1="74.4075" x2="42.0205" y2="73.6376" gradientUnits="userSpaceOnUse">
<stop stop-color="#009FFE"/>
<stop offset="0.51" stop-color="#00D3FF"/>
<stop offset="1" stop-color="#009FFE"/>
</linearGradient>
<linearGradient id="paint5_linear_48_91" x1="50.4636" y1="43.1142" x2="70.1586" y2="41.6541" gradientUnits="userSpaceOnUse">
<stop stop-color="#009FFE"/>
<stop offset="0.51" stop-color="#00D3FF"/>
<stop offset="1" stop-color="#009FFE"/>
</linearGradient>
</defs>
</svg>
