<svg width="100" height="100" viewBox="0 0 100 100" fill="none" xmlns="http://www.w3.org/2000/svg">
<g id="icon">
<circle id="Ellipse 7" cx="50" cy="50" r="50" fill="url(#paint0_linear_48_121)"/>
<g id="Group">
<path id="Vector" d="M23.029 77.0001C23.029 76.4191 23.029 75.8817 23.029 75.3008C24.4669 75.3008 25.8757 75.3008 27.3281 75.3008C27.3281 74.1969 27.3281 73.1367 27.3281 72.0474C27.9817 71.8441 28.6062 71.6407 29.2308 71.4519C29.5358 71.3648 29.6955 71.2195 29.7827 70.8855C30.262 69.0119 31.0027 67.2545 31.9613 65.5697C32.0629 65.3809 31.9903 65.0904 32.0049 64.8435C32.0049 64.829 31.9903 64.8145 31.9758 64.7999C31.6853 64.219 31.1189 63.5799 31.206 63.0571C31.2932 62.5342 32.0339 62.0985 32.4841 61.6337C33.9365 60.1668 35.4035 58.6999 36.8994 57.2184C37.4949 57.5234 38.0759 57.8139 38.6423 58.1334C38.9183 58.2932 39.1361 58.3077 39.4411 58.1334C41.0823 57.1458 42.8397 56.4196 44.6988 55.9548C45.0764 55.8532 45.2362 55.6789 45.3378 55.3303C45.4976 54.7348 45.7009 54.1539 45.9043 53.5293C46.9645 53.5293 48.0393 53.5293 49.1286 53.5293C49.1286 49.7095 49.1286 45.9478 49.1286 42.128C47.3857 41.6633 46.2238 40.5449 45.759 38.744C44.5826 38.744 43.4207 38.744 42.1861 38.744C42.1861 38.9618 42.1861 39.1506 42.1861 39.354C42.1861 42.2588 42.1861 45.1636 42.1861 48.0683C42.1861 50.7988 40.3271 52.6579 37.6111 52.6579C34.2706 52.6579 30.9301 52.6579 27.5896 52.6579C24.8591 52.6289 23 50.7698 23 48.0393C23 41.2276 23 34.4304 23 27.6186C23 24.8591 24.8445 23.0145 27.6041 23C30.9301 23 34.2415 23 37.5675 23C40.3126 23.0145 42.1716 24.8591 42.1716 27.575C42.1716 30.4798 42.1716 33.3846 42.1716 36.2894C42.1716 36.4928 42.1716 36.6816 42.1716 36.9139C43.3626 36.9139 44.5245 36.9139 45.7009 36.9139C46.4126 34.6773 47.8941 33.3411 50.3341 33.5008C52.4401 33.6315 53.7182 34.9242 54.2991 36.9285C55.4465 36.9285 56.6084 36.9285 57.843 36.9285C57.843 36.7397 57.843 36.5363 57.843 36.3475C57.843 33.4282 57.843 30.5089 57.843 27.575C57.843 24.8445 59.702 23 62.4325 23C65.773 23 69.1136 23 72.4541 23C75.141 23 77.0146 24.8591 77.0146 27.546C77.0146 34.3868 77.0146 41.2276 77.0146 48.0829C77.0146 50.7407 75.141 52.6143 72.4976 52.6289C69.1281 52.6434 65.744 52.6289 62.3744 52.6289C59.7166 52.6289 57.8575 50.7553 57.8575 48.0974C57.8575 45.1781 57.8575 42.2588 57.8575 39.3249C57.8575 39.1361 57.8575 38.9328 57.8575 38.7149C56.652 38.7149 55.4901 38.7149 54.2991 38.7149C53.8198 40.4723 52.7015 41.6342 50.9005 42.099C50.9005 45.8897 50.9005 49.6515 50.9005 53.4858C51.9753 53.4858 53.0355 53.4858 54.1248 53.4858C54.3282 54.1394 54.5315 54.7639 54.7203 55.3884C54.8075 55.6934 54.9527 55.8532 55.2867 55.9403C57.1603 56.4196 58.9323 57.1458 60.588 58.148C60.8785 58.3223 61.0963 58.3223 61.3868 58.148C61.9387 57.8284 62.5052 57.5525 62.999 57.3056C64.9597 59.2663 66.8914 61.198 68.8812 63.1878C68.6488 63.6525 68.3583 64.2335 68.0388 64.7999C67.879 65.0759 67.8645 65.2938 68.0388 65.5988C69.0409 67.2545 69.7671 69.0264 70.2464 70.9C70.3336 71.234 70.4933 71.3793 70.7983 71.4664C71.4229 71.6407 72.0329 71.8441 72.6719 72.0474C72.6719 73.1367 72.6719 74.1824 72.6719 75.2862C74.1243 75.2862 75.5477 75.2862 77.0001 75.2862C77.0001 75.8817 77.0001 76.4191 77.0001 77.0001C59.0194 77.0001 41.0387 77.0001 23.029 77.0001ZM70.929 75.2717C70.929 74.6762 70.9436 74.1388 70.9145 73.6014C70.9 73.4707 70.7548 73.2819 70.624 73.2383C70.1738 73.0641 69.68 72.9624 69.2297 72.7736C69.0555 72.701 68.8376 72.4976 68.794 72.3233C68.2857 69.8978 67.3416 67.6612 65.9909 65.5842C65.9038 65.439 65.8892 65.1776 65.9619 65.0178C66.2088 64.4804 66.4992 63.9575 66.7752 63.4056C66.6445 63.2749 66.5428 63.1442 66.4266 63.0425C65.2066 61.8225 63.9866 60.6025 62.7666 59.3825C62.2437 59.6585 61.7354 59.8908 61.2561 60.1813C60.9656 60.3556 60.7478 60.3266 60.4718 60.1377C58.8161 59.0339 57.0441 58.1189 55.0979 57.7413C53.8053 57.4944 53.1082 56.9425 52.9629 55.6644C52.9193 55.3158 52.716 55.2577 52.3965 55.2577C51.2055 55.2722 50 55.2577 48.8091 55.2722C48.2717 55.2722 47.5891 55.0979 47.226 55.3739C46.8629 55.6353 46.7902 56.3325 46.6595 56.8553C46.5724 57.233 46.369 57.3782 46.0059 57.4508C44.0597 57.843 42.2152 58.5546 40.4868 59.5423C40.0221 59.8037 39.5573 60.2975 39.078 60.2975C38.5842 60.2975 38.0613 59.8618 37.582 59.5858C37.2916 59.4115 37.1173 59.4696 36.8994 59.702C35.8246 60.8058 34.7208 61.8951 33.6315 62.9699C33.4863 63.1152 33.2539 63.2023 33.1232 63.2749C33.4863 63.9866 33.7768 64.4949 34.0092 65.0178C34.0818 65.1776 34.0963 65.4535 33.9946 65.5842C32.6584 67.6612 31.7144 69.8978 31.1915 72.3233C31.1479 72.5122 30.9156 72.73 30.7267 72.8026C30.1894 73.0205 29.6374 73.1657 29.1001 73.34C29.1001 74.0081 29.1001 74.6472 29.1001 75.2862C30.8429 75.2862 32.5713 75.2862 34.3287 75.2862C34.6192 71.3357 36.1151 67.9081 38.9183 65.1049C41.7359 62.2728 45.1781 60.7477 49.1576 60.5299C52.4981 60.3411 55.6063 61.1399 58.4094 62.9844C62.8392 65.8892 65.1921 70.0576 65.6569 75.3008C67.4433 75.2717 69.1426 75.2717 70.929 75.2717ZM59.6294 31.7434C59.6294 35.8246 59.6294 39.8478 59.6294 43.8709C64.858 43.8709 70.0576 43.8709 75.2427 43.8709C75.2427 39.8042 75.2427 35.7811 75.2427 31.7434C70.0431 31.7434 64.858 31.7434 59.6294 31.7434ZM40.3852 43.9C40.3852 39.8187 40.3852 35.7811 40.3852 31.7725C35.1565 31.7725 29.957 31.7725 24.7719 31.7725C24.7719 35.8392 24.7719 39.8623 24.7719 43.9C29.986 43.9 35.1711 43.9 40.3852 43.9ZM39.5573 75.2717C40.1818 69.0555 45.5121 65.7004 49.8112 65.7004C52.1496 65.7004 54.2846 66.3249 56.1727 67.7192C58.6999 69.5928 60.0797 72.1345 60.4427 75.2427C61.6192 75.2427 62.7375 75.2427 63.8849 75.2427C63.5654 68.2421 57.3492 61.6337 49.0414 62.2582C40.4142 62.8973 36.1442 70.3917 36.2168 75.2717C37.3061 75.2717 38.4099 75.2717 39.5573 75.2717ZM41.3873 75.2572C47.1679 75.2572 52.9048 75.2572 58.6418 75.2572C58.3803 71.51 55.0398 67.4578 50.0146 67.4578C45.0038 67.4578 41.6342 71.4955 41.3873 75.2572ZM40.4142 45.7009C35.1565 45.7009 29.957 45.7009 24.7429 45.7009C24.7429 46.645 24.7138 47.56 24.7574 48.4605C24.8155 49.7676 25.9193 50.8715 27.2555 50.886C30.8139 50.915 34.3723 50.915 37.9306 50.886C39.2523 50.8715 40.3561 49.7822 40.4287 48.4605C40.4578 47.56 40.4142 46.645 40.4142 45.7009ZM59.6004 45.6864C59.6004 46.6014 59.5858 47.4729 59.6004 48.3443C59.6294 49.7386 60.7478 50.8715 62.1421 50.886C65.6568 50.9005 69.1862 50.9005 72.701 50.886C73.9936 50.886 75.1119 49.9274 75.2281 48.6348C75.3153 47.6762 75.2427 46.6886 75.2427 45.6864C70.0431 45.6864 64.858 45.6864 59.6004 45.6864ZM29.9715 24.7719C29.9715 25.6869 29.957 26.5584 29.9715 27.4298C30.0005 28.7805 31.0753 29.8844 32.4115 29.9715C33.7768 30.0586 35.0258 29.0855 35.1565 27.7203C35.2437 26.7617 35.1711 25.7741 35.1711 24.7719C33.4427 24.7719 31.7434 24.7719 29.9715 24.7719ZM64.8435 24.7574C64.8435 25.7596 64.7854 26.7181 64.858 27.6767C64.9452 28.8822 65.9909 29.8553 67.1964 29.957C68.4019 30.0732 69.68 29.3179 69.8978 28.1415C70.1012 27.0377 70.0431 25.8903 70.1157 24.7429C68.2857 24.7574 66.6009 24.7574 64.8435 24.7574ZM50.0146 40.4287C51.4379 40.4287 52.6143 39.2523 52.6143 37.829C52.6289 36.3766 51.4379 35.2001 50 35.2001C48.5767 35.2001 47.4002 36.3766 47.4002 37.7854C47.3857 39.2523 48.5767 40.4433 50.0146 40.4287ZM63.0861 24.7574C62.694 24.7574 62.3454 24.7429 62.0113 24.7574C60.9656 24.83 59.9344 25.5562 59.7601 26.5729C59.5713 27.6767 59.6149 28.8241 59.5568 29.9279C61.0818 29.9279 62.4906 29.9279 63.943 29.9279C63.4056 29.1436 63.1006 28.3303 63.1006 27.4443C63.0861 26.5729 63.0861 25.7015 63.0861 24.7574ZM70.8855 29.9715C71.6988 29.9715 72.4105 29.9715 73.1076 29.9715C73.8193 29.9715 74.5455 29.9715 75.2862 29.9715C75.2862 29.1146 75.2862 28.3303 75.2862 27.5605C75.2717 25.6143 73.7467 24.3943 71.815 24.83C71.6988 26.5438 72.1491 28.3593 70.8855 29.9715ZM24.7429 29.957C26.1953 29.957 27.6041 29.957 29.1291 29.957C27.8365 28.3593 28.3593 26.5148 28.1996 24.7719C27.8074 24.7719 27.4443 24.7429 27.0812 24.7719C25.8176 24.8881 24.801 25.9629 24.7429 27.241C24.7138 28.1124 24.7429 28.9984 24.7429 29.957ZM36.972 24.6848C36.8559 26.5438 37.3061 28.3739 36.0716 29.9424C37.582 29.9424 38.9909 29.9424 40.4142 29.9424C40.4142 28.9839 40.4723 28.0543 40.3997 27.1393C40.3126 26.05 39.7171 25.2657 38.6713 24.9172C38.163 24.7429 37.582 24.7574 36.972 24.6848Z" fill="#121212"/>
<path id="Vector_2" d="M64.8 43.2755C63.7833 42.2588 62.7376 41.2131 61.6628 40.1528C62.0405 39.8042 62.4471 39.4266 62.8974 39.0054C63.4783 39.63 64.1029 40.2835 64.7129 40.9371C67.4579 38.1921 70.1303 35.5197 72.8318 32.8182C73.2675 33.312 73.6451 33.7187 73.9792 34.0963C70.9582 37.1028 67.8791 40.1964 64.8 43.2755Z" fill="#121212"/>
<path id="Vector_3" d="M29.9715 43.2754C28.9403 42.2442 27.8946 41.1839 26.8198 40.1237C27.1829 39.7896 27.5896 39.4266 28.0253 39.0344C28.6063 39.6444 29.2308 40.3125 29.8699 40.9951C32.6439 38.2211 35.3163 35.5487 38.0178 32.8472C38.439 33.312 38.8166 33.7186 39.1507 34.0963C36.1152 37.1318 33.0216 40.2108 29.9715 43.2754Z" fill="#121212"/>
<path id="Vector_4" d="M43.9435 73.5141C43.9435 72.9622 43.9435 72.4249 43.9435 71.844C44.4808 71.844 45.0326 71.844 45.628 71.844C45.628 72.3814 45.628 72.9332 45.628 73.5141C45.0617 73.5141 44.5098 73.5141 43.9435 73.5141Z" fill="#121212"/>
<path id="Vector_5" d="M49.0993 73.5286C48.5185 73.5286 47.9812 73.5286 47.4148 73.5286C47.4148 72.9623 47.4148 72.425 47.4148 71.8586C47.9521 71.8586 48.5039 71.8586 49.0993 71.8586C49.0993 72.3814 49.0993 72.9332 49.0993 73.5286Z" fill="#121212"/>
<path id="Vector_6" d="M52.5851 73.5287C52.0187 73.5287 51.4959 73.5287 50.915 73.5287C50.915 72.9623 50.915 72.4105 50.915 71.8296C51.4669 71.8296 52.0042 71.8296 52.5851 71.8296C52.5851 72.3669 52.5851 72.9188 52.5851 73.5287Z" fill="#121212"/>
<path id="Vector_7" d="M54.401 71.8151C54.9819 71.8151 55.5047 71.8151 56.071 71.8151C56.071 72.3669 56.071 72.9187 56.071 73.5141C55.5337 73.5141 54.9819 73.5141 54.401 73.5141C54.401 72.9623 54.401 72.4105 54.401 71.8151Z" fill="#121212"/>
<path id="Vector_8" d="M30.0006 49.1138C30.0006 48.5329 30.0006 47.9956 30.0006 47.4437C31.7287 47.4437 33.4133 47.4437 35.1559 47.4437C35.1559 47.981 35.1559 48.5329 35.1559 49.1138C33.4568 49.1138 31.7433 49.1138 30.0006 49.1138Z" fill="#121212"/>
<path id="Vector_9" d="M28.1994 49.1283C27.6331 49.1283 27.1103 49.1283 26.5294 49.1283C26.5294 48.5764 26.5294 48.0391 26.5294 47.4437C27.0667 47.4437 27.6186 47.4437 28.1994 47.4437C28.1994 47.981 28.1994 48.5184 28.1994 49.1283Z" fill="#121212"/>
<path id="Vector_10" d="M38.6422 49.1284C38.0758 49.1284 37.5385 49.1284 36.9722 49.1284C36.9722 48.562 36.9722 48.0102 36.9722 47.4293C37.524 47.4293 38.0613 47.4293 38.6422 47.4293C38.6422 47.9811 38.6422 48.5184 38.6422 49.1284Z" fill="#121212"/>
<path id="Vector_11" d="M64.8435 49.1138C64.8435 48.5474 64.8435 48.0101 64.8435 47.4437C66.5716 47.4437 68.2852 47.4437 70.0279 47.4437C70.0279 48.0101 70.0279 48.5474 70.0279 49.1138C68.3143 49.1138 66.6007 49.1138 64.8435 49.1138Z" fill="#121212"/>
<path id="Vector_12" d="M61.3434 49.0992C61.3434 48.5329 61.3434 48.0101 61.3434 47.4437C61.8952 47.4437 62.4471 47.4437 63.0425 47.4437C63.0425 47.981 63.0425 48.5329 63.0425 49.0992C62.4761 49.0992 61.9097 49.0992 61.3434 49.0992Z" fill="#121212"/>
<path id="Vector_13" d="M71.8151 49.1138C71.8151 48.5474 71.8151 48.0101 71.8151 47.4437C72.3814 47.4437 72.9333 47.4437 73.5141 47.4437C73.5141 47.9956 73.5141 48.5329 73.5141 49.1138C72.9623 49.1138 72.425 49.1138 71.8151 49.1138Z" fill="#121212"/>
<path id="Vector_14" d="M32.6001 26.5003C33.0648 26.5003 33.4569 26.907 33.4569 27.3717C33.4424 27.8364 33.0503 28.2285 32.571 28.2285C32.0918 28.2139 31.7142 27.8218 31.7142 27.3426C31.7288 26.8779 32.1208 26.4858 32.6001 26.5003Z" fill="#121212"/>
<path id="Vector_15" d="M67.4433 28.2283C66.9641 28.2283 66.572 27.8362 66.572 27.3715C66.572 26.8923 66.9496 26.5002 67.4288 26.5002C67.8935 26.5002 68.3001 26.8923 68.3001 27.357C68.3147 27.8217 67.908 28.2283 67.4433 28.2283Z" fill="#121212"/>
</g>
</g>
<defs>
<linearGradient id="paint0_linear_48_121" x1="-10.3354" y1="69.6555" x2="114.182" y2="60.4247" gradientUnits="userSpaceOnUse">
<stop stop-color="#009FFE"/>
<stop offset="0.51" stop-color="#00D3FF"/>
<stop offset="1" stop-color="#009FFE"/>
</linearGradient>
</defs>
</svg>
